<svg xmlns="http://www.w3.org/2000/svg" xmlns:xlink="http://www.w3.org/1999/xlink" viewBox="0 0 26.47 24.29"><defs><style>.cls-1{fill:url(#linear-gradient);}.cls-2{fill:url(#linear-gradient-2);}.cls-3{fill:url(#linear-gradient-3);}.cls-4{fill:url(#linear-gradient-4);}.cls-5{fill:url(#linear-gradient-5);}.cls-6{fill:url(#linear-gradient-6);}.cls-7{fill:url(#linear-gradient-7);}.cls-8{fill:url(#linear-gradient-8);}.cls-9{fill:url(#linear-gradient-9);}.cls-10{fill:url(#linear-gradient-10);}.cls-11{fill:url(#linear-gradient-11);}.cls-12{fill:url(#linear-gradient-12);}.cls-13{fill:url(#linear-gradient-13);}.cls-14{fill:url(#linear-gradient-14);}.cls-15{fill:url(#linear-gradient-15);}.cls-16{fill:url(#linear-gradient-16);}.cls-17{fill:#bd2137;}.cls-18{fill:url(#linear-gradient-17);}.cls-19{fill:url(#linear-gradient-18);}.cls-20{fill:url(#linear-gradient-19);}.cls-21{fill:url(#linear-gradient-20);}.cls-22{fill:url(#linear-gradient-21);}.cls-23{fill:url(#linear-gradient-22);}.cls-24{fill:url(#linear-gradient-23);}.cls-25{fill:url(#linear-gradient-24);}.cls-26{fill:url(#linear-gradient-25);}.cls-27{fill:url(#linear-gradient-26);}</style><linearGradient id="linear-gradient" x1="25.42" y1="2.28" x2="9.95" y2="27.39" gradientUnits="userSpaceOnUse"><stop offset="0" stop-color="#cfae7e"/><stop offset="0.01" stop-color="#d4b687"/><stop offset="0.05" stop-color="#e7d1a6"/><stop offset="0.08" stop-color="#f4e4bc"/><stop offset="0.12" stop-color="#fcf0c9"/><stop offset="0.15" stop-color="#fff4ce"/><stop offset="0.22" stop-color="#f8e4b8"/><stop offset="0.32" stop-color="#f1d5a2"/><stop offset="0.41" stop-color="#edcc95"/><stop offset="0.49" stop-color="#ecc991"/><stop offset="0.58" stop-color="#edcc95"/><stop offset="0.68" stop-color="#f1d5a2"/><stop offset="0.78" stop-color="#f8e3b7"/><stop offset="0.86" stop-color="#fff4ce"/><stop offset="0.89" stop-color="#fdf0ca"/><stop offset="0.92" stop-color="#f5e5bd"/><stop offset="0.96" stop-color="#e9d3a9"/><stop offset="0.99" stop-color="#d7ba8c"/><stop offset="1" stop-color="#cfae7e"/></linearGradient><linearGradient id="linear-gradient-2" x1="23.78" y1="1.28" x2="8.31" y2="26.38" xlink:href="#linear-gradient"/><linearGradient id="linear-gradient-3" x1="24.48" y1="1.71" x2="9.01" y2="26.81" xlink:href="#linear-gradient"/><linearGradient id="linear-gradient-4" x1="16.22" y1="-3.38" x2="0.76" y2="21.72" xlink:href="#linear-gradient"/><linearGradient id="linear-gradient-5" x1="24.36" y1="1.63" x2="8.9" y2="26.74" xlink:href="#linear-gradient"/><linearGradient id="linear-gradient-6" x1="16.38" y1="-3.29" x2="0.91" y2="21.81" xlink:href="#linear-gradient"/><linearGradient id="linear-gradient-7" x1="23.64" y1="1.19" x2="8.17" y2="26.29" xlink:href="#linear-gradient"/><linearGradient id="linear-gradient-8" x1="25.23" y1="2.17" x2="9.76" y2="27.27" xlink:href="#linear-gradient"/><linearGradient id="linear-gradient-9" x1="20.3" y1="-0.87" x2="4.83" y2="24.23" xlink:href="#linear-gradient"/><linearGradient id="linear-gradient-10" x1="14.85" y1="-4.23" x2="-0.62" y2="20.87" xlink:href="#linear-gradient"/><linearGradient id="linear-gradient-11" x1="16.51" y1="-3.21" x2="1.04" y2="21.9" xlink:href="#linear-gradient"/><linearGradient id="linear-gradient-12" x1="22.26" y1="0.34" x2="6.79" y2="25.44" xlink:href="#linear-gradient"/><linearGradient id="linear-gradient-13" x1="18.69" y1="-1.86" x2="3.22" y2="23.24" xlink:href="#linear-gradient"/><linearGradient id="linear-gradient-14" x1="13.03" y1="-5.35" x2="-2.44" y2="19.75" xlink:href="#linear-gradient"/><linearGradient id="linear-gradient-15" x1="14.63" y1="-4.36" x2="-0.84" y2="20.74" xlink:href="#linear-gradient"/><linearGradient id="linear-gradient-16" x1="22.74" y1="0.64" x2="7.27" y2="25.74" xlink:href="#linear-gradient"/><linearGradient id="linear-gradient-17" x1="14.57" y1="-4.4" x2="-0.89" y2="20.7" xlink:href="#linear-gradient"/><linearGradient id="linear-gradient-18" x1="14.44" y1="-4.48" x2="-1.03" y2="20.62" xlink:href="#linear-gradient"/><linearGradient id="linear-gradient-19" x1="20.08" y1="-1" x2="4.61" y2="24.1" xlink:href="#linear-gradient"/><linearGradient id="linear-gradient-20" x1="24.27" y1="1.58" x2="8.8" y2="26.68" xlink:href="#linear-gradient"/><linearGradient id="linear-gradient-21" x1="21.96" y1="0.15" x2="6.49" y2="25.25" xlink:href="#linear-gradient"/><linearGradient id="linear-gradient-22" x1="19.18" y1="-1.56" x2="3.71" y2="23.54" xlink:href="#linear-gradient"/><linearGradient id="linear-gradient-23" x1="24.77" y1="1.89" x2="9.3" y2="26.99" xlink:href="#linear-gradient"/><linearGradient id="linear-gradient-24" x1="20.77" y1="-0.58" x2="5.31" y2="24.52" xlink:href="#linear-gradient"/><linearGradient id="linear-gradient-25" x1="18.9" y1="-1.73" x2="3.43" y2="23.37" xlink:href="#linear-gradient"/><linearGradient id="linear-gradient-26" x1="24.67" y1="1.82" x2="9.2" y2="26.92" xlink:href="#linear-gradient"/></defs><g id="Layer_2" data-name="Layer 2"><g id="Layer_3" data-name="Layer 3"><path class="cls-1" d="M18.46,18.19,19,18a9.12,9.12,0,0,1,1.44-.34h.24v.05l-.12.07-1.1.47-2.18.82a1,1,0,0,1-1.13-.29.08.08,0,0,0-.1,0l-.46.17a.15.15,0,0,0-.06,0,.86.86,0,0,1-.36.23l-5.37,2a.66.66,0,0,1-.46,0,.27.27,0,0,1-.17-.44.61.61,0,0,1,.34-.25l3-1.13L15,18.54a.9.9,0,0,1,.4-.05.14.14,0,0,0,.09,0l.46-.17c.05,0,.06,0,.05-.09a1,1,0,0,1,.62-.94l3.16-1.11a3.58,3.58,0,0,1,.35-.09c0,.09,0,.12-.08.15a6.34,6.34,0,0,1-.62.37c-.41.2-.83.38-1.25.57l-.05,0a.14.14,0,0,0,.19.06l1.85-.58a.45.45,0,0,1,.16,0s.06,0,.06,0a.06.06,0,0,1,0,.07.88.88,0,0,1-.21.12l-1.6.7-.12,0,0,.1c.25-.08.48-.17.73-.24l1.15-.34.13,0a.18.18,0,0,1,.09,0,.3.3,0,0,1,0,.08l-.24.14-1.73.72-.08.07Z"/><path class="cls-2" d="M14.66,16.77l.29.8-.19,0c-.09.14-.12.16-.28.1-.11.16-.12.16-.29.11-.11.15-.14.16-.29.1-.11.16-.13.16-.3.11-.1.15-.12.16-.28.1-.14.17-.14.17-.3.11-.12.16-.12.16-.29.11-.1.15-.14.17-.32.12s-.09,0-.12,0-.18.17-.36.1-.08,0-.12,0a.24.24,0,0,1-.35.08.11.11,0,0,0-.13,0c-.14.14-.19.14-.37,0a.09.09,0,0,0-.12,0c-.16.13-.2.14-.38,0a.09.09,0,0,0-.12,0c-.16.11-.22.11-.37,0a.12.12,0,0,0-.15,0,.23.23,0,0,1-.34-.07.14.14,0,0,0-.16-.05c-.18,0-.25,0-.31-.18a.2.2,0,0,0-.12-.13l-.17-.11v0L9.22,18l10.34-3.79a1.14,1.14,0,0,1,.37-.05.28.28,0,0,1,.21.47,1.06,1.06,0,0,1-.31.21l-5.08,1.87Z"/><path class="cls-3" d="M12.46,24.29a11.6,11.6,0,0,1-7.15-2.6c-.35-.28-.68-.61-1-.92-.1-.08-.11-.16,0-.22s.13,0,.21.05a11.42,11.42,0,0,0,3.1,2.24,10.76,10.76,0,0,0,3.66,1.1,11.24,11.24,0,0,0,9.2-3,11,11,0,0,0,3.45-6.2c.09-.45.13-.92.19-1.38,0-.1.06-.15.14-.14s.11.06.11.16a11.78,11.78,0,0,1-1,3.88A11.63,11.63,0,0,1,15,24.05,12.69,12.69,0,0,1,12.46,24.29Z"/><path class="cls-4" d="M1,10.05c.07-.33.13-.67.2-1A11.69,11.69,0,0,1,10.31.22,11.44,11.44,0,0,1,13.05,0a11.65,11.65,0,0,1,6.51,2.34c.25.18.49.38.73.58s.1.14.05.2-.14.06-.22,0A11.36,11.36,0,0,0,16.07.81,10.62,10.62,0,0,0,13.16.27a11.45,11.45,0,0,0-11.8,9c-.06.27-.1.54-.14.81a.14.14,0,0,1-.15.12A.15.15,0,0,1,1,10.05Z"/><path class="cls-5" d="M13.12,23.17A10.77,10.77,0,0,1,8,22.1a10.58,10.58,0,0,1-2.58-1.75c-.1-.08-.11-.14-.06-.2s.13-.07.21,0c.29.24.57.5.87.72a10.33,10.33,0,0,0,4.26,1.87,10.76,10.76,0,0,0,2,.19,10.46,10.46,0,0,0,10.19-8.28c.06-.29.1-.59.15-.89,0-.1.07-.15.14-.14s.12.08.11.18A10.73,10.73,0,0,1,17.63,22a10.19,10.19,0,0,1-3.36,1.09C13.82,23.12,13.36,23.15,13.12,23.17Z"/><path class="cls-6" d="M2.09,9.63c.07-.29.13-.58.21-.86a10.67,10.67,0,0,1,8.24-7.64A10.37,10.37,0,0,1,13.09.94,10.63,10.63,0,0,1,19.3,3.31c.08.06.09.13,0,.19s-.13.06-.21,0a10.6,10.6,0,0,0-1.94-1.23A10.38,10.38,0,0,0,6.78,3,10.19,10.19,0,0,0,3.32,6.83a10.63,10.63,0,0,0-1,2.84.11.11,0,0,1-.14.11C2.12,9.77,2.09,9.71,2.09,9.63Z"/><path class="cls-7" d="M20.9,5.43c0,.3.07.59.1.88.06.58.12,1.15.19,1.73,0,.13,0,.26,0,.39a.08.08,0,0,1,0,.08l-.46.17c-.06,0-.09,0-.13,0L19.15,7.31l0,0a1.5,1.5,0,0,0,0,.22c.05.55.11,1.1.17,1.65,0,0,0,.08,0,.08-.18.08-.37.14-.57.21,0-.25-.05-.49-.08-.74L18.43,7l-.06-.54a.09.09,0,0,1,.05-.07,3.94,3.94,0,0,1,.48-.18s.07,0,.09,0l1.45,1.35.06,0,0-.33c0-.51-.11-1-.17-1.53,0-.06,0-.09.07-.11Z"/><path class="cls-8" d="M21.84,8.27c-.05-.43-.09-.84-.13-1.25-.07-.57-.13-1.15-.19-1.72,0-.08,0-.1.08-.12l1.13-.41a1.35,1.35,0,0,1,.82-.07,1,1,0,0,1,.75.84,2,2,0,0,1-1.23,2.28C22.67,8,22.26,8.12,21.84,8.27Zm.58-.82c.24-.09.46-.16.67-.26a1.18,1.18,0,0,0,.59-1.29.65.65,0,0,0-.95-.52l-.39.14c-.13.05-.13.05-.11.19,0,.35.07.71.11,1.06S22.39,7.21,22.42,7.45Z"/><path class="cls-9" d="M14.51,9.91l.7.79-.21.08-.43.16a.11.11,0,0,1-.14,0c-.14-.19-.29-.38-.43-.58a.1.1,0,0,0-.14,0l-.48.17a.08.08,0,0,0-.06.1c0,.23,0,.46.07.69,0,.08,0,.12-.09.15l-.54.2c0-.27,0-.52-.08-.78-.06-.57-.12-1.15-.19-1.73,0-.17,0-.33,0-.5a.07.07,0,0,1,0-.07L13.93,8a.9.9,0,0,1,.4,0,.69.69,0,0,1,.58.69A1.4,1.4,0,0,1,14.51,9.91Zm-1.26,0,.67-.26a.57.57,0,0,0,.38-.44.52.52,0,0,0-.11-.52c-.14-.13-.31-.07-.48,0h0l-.47.17c-.08,0-.09.07-.09.14C13.18,9.29,13.21,9.59,13.25,9.91Z"/><path class="cls-10" d="M5.54,14.24l-.63.23-.13-1.19-.11,0L3.6,13.7c-.07,0-.08.06-.08.13,0,.34.08.68.12,1a.1.1,0,0,1-.08.13l-.55.2L3,15c-.06-.64-.13-1.27-.2-1.91l-.09-.84c0-.09,0-.14.1-.17l.53-.18.13,1.26.11,0,1.06-.39c.08,0,.09-.06.08-.14,0-.36-.08-.73-.11-1.1,0,0,0-.08,0-.08l.59-.22Z"/><path class="cls-11" d="M8,10.18l.06.57-.11.05-1.3.47c-.06,0-.09.05-.08.12s0,.37.07.56L8,11.46c0,.19,0,.37,0,.54,0,0,0,.06-.07.07l-1.18.43-.09,0,.07.66,1.54-.56.06.55s0,0-.05.05L6.19,14h0c0-.31-.07-.61-.1-.92-.06-.52-.11-1-.17-1.56,0-.17,0-.34,0-.51a.12.12,0,0,1,0-.07l2.05-.75Z"/><path class="cls-12" d="M16.88,6.91l1.53,2.62-.68.25c-.08-.14-.17-.28-.24-.43s-.06-.08-.14,0l-1.13.42a.18.18,0,0,0-.08.09,2.77,2.77,0,0,0-.11.48.19.19,0,0,1-.15.17c-.18,0-.35.12-.54.19.06-.24.11-.46.17-.69l.69-2.71c0-.07,0-.12.11-.14ZM16.3,9.1l.87-.32-.56-1Z"/><path class="cls-13" d="M12,9.15l-.29.61a2.7,2.7,0,0,0-.36-.09,1.11,1.11,0,0,0-1.12.68,1.19,1.19,0,0,0-.09.77.69.69,0,0,0,1,.46,1.91,1.91,0,0,0,.41-.29.11.11,0,0,0,0-.1l-.06-.66c0-.06,0-.09.06-.11l.48-.17c0,.25.06.49.08.73s0,.26,0,.39a.13.13,0,0,1,0,.09,2.36,2.36,0,0,1-1.34.86,1.14,1.14,0,0,1-1.38-1A2.09,2.09,0,0,1,11.06,9,1.41,1.41,0,0,1,12,9.15Z"/><path class="cls-14" d="M.91,13.37l-.85.31L0,13.09l2.34-.86a5.32,5.32,0,0,1,.06.56s0,.05-.06.06l-.78.29.06.64c.06.57.12,1.14.19,1.72,0,.08,0,.12-.1.15s-.34.12-.53.19Z"/><path class="cls-15" d="M10.35,8.25c0,.07-.06.1-.12.12l-1,.36L1.65,11.49c-.12,0-.19,0-.22,0s0-.14.14-.18l8.58-3.12C10.28,8.1,10.36,8.17,10.35,8.25Z"/><path class="cls-16" d="M16,13.44l-.47-1.15a.45.45,0,0,0,0,.08l-.18,1.25a.17.17,0,0,1-.06.08l-.35.13-.75-1.64.41-.15.48,1.2h0l.06-.38c0-.34.09-.67.14-1a.1.1,0,0,1,.06-.08l.32-.12.48,1.2h0l.09-.62c0-.26.06-.51.1-.76a.1.1,0,0,1,.06-.08,2.68,2.68,0,0,1,.34-.13c0,.2-.06.38-.1.57l-.24,1.4a.12.12,0,0,1-.09.1Z"/><path class="cls-17" d="M.64,17.32s-.07-.05-.09-.09a.09.09,0,0,1,.06-.13L.78,17l6.38-2.34c.12,0,.18,0,.21,0s0,.13-.13.18L.74,17.29Z"/><path class="cls-18" d="M3.05,10.26S3,10.2,3,10.16A.11.11,0,0,1,3,10l.34-.12L9.51,7.67l.1,0a.1.1,0,0,1,.13.06.11.11,0,0,1,0,.15l-.07,0L3.14,10.23Z"/><path class="cls-17" d="M7.19,15.67c0,.07-.06.1-.12.12l-1,.37L.85,18.07l-.06,0c-.07,0-.12,0-.13-.07a.19.19,0,0,1,0-.14s.07,0,.11-.05L7,15.57C7.11,15.53,7.19,15.57,7.19,15.67Z"/><path class="cls-17" d="M26.47,9.51c0,.07-.06.09-.12.12l-1,.38-5.06,1.85c-.1,0-.17,0-.19,0s0-.13.11-.17L25,9.86l1.26-.46C26.39,9.36,26.47,9.41,26.47,9.51Z"/><path class="cls-17" d="M.75,18.75c0-.07.05-.11.12-.13l1.1-.4,4.89-1.79,0,0a.11.11,0,0,1,.16.07c0,.06,0,.12-.08.15l-.79.29L1,18.84C.84,18.88.75,18.85.75,18.75Z"/><path class="cls-19" d="M3.44,9.4a.33.33,0,0,1-.09-.11c0-.07,0-.12.08-.15L3.7,9l6.1-2.2c.14,0,.21,0,.24,0s0,.14-.15.19L3.55,9.37Z"/><path class="cls-20" d="M11.27,14.81c0,.1,0,.2,0,.3a.08.08,0,0,1,0,.06L10,15.64,9.8,13.8l1.29-.47,0,.31s0,0-.07.06L10.3,14l-.07,0,0,.38.81-.29a2.4,2.4,0,0,0,0,.28c0,.06,0,.08-.06.1l-.62.22-.12.05,0,.39Z"/><path class="cls-17" d="M20.54,11s-.08-.05-.08-.09a.16.16,0,0,1,0-.13s.07,0,.11-.05l5.54-2,.06,0a.11.11,0,0,1,.15.07c0,.06,0,.11-.06.15l-.09,0-4.86,1.78-.71.26Z"/><path class="cls-21" d="M18.65,12.47l-.42.15-.17-.3-.26.09-.43.16c-.06,0-.1,0-.1.12a.41.41,0,0,1-.38.43l-.09,0c.05-.2.09-.38.14-.57.12-.47.25-1,.36-1.43a.17.17,0,0,1,.13-.14l.3-.11Zm-1.08-1.05-.19.79L17.9,12Z"/><path class="cls-22" d="M13.61,12.41,14.52,14l-.36.13a.07.07,0,0,1-.08,0c-.05-.07-.09-.16-.14-.24-.25.09-.49.17-.73.27,0,0,0,0-.05.06a1.21,1.21,0,0,0-.05.18.22.22,0,0,1-.21.23l-.22.09c0-.08,0-.13,0-.19.16-.61.31-1.22.46-1.83a.16.16,0,0,1,.12-.13Zm.17,1.12-.34-.6-.18.79Z"/><path class="cls-17" d="M20.71,10.13a.43.43,0,0,1-.09-.1c0-.06,0-.11.08-.14L21,9.77l5-1.84.06,0a.12.12,0,0,1,.16.07c0,.07,0,.12-.08.15l-.35.13-5,1.83Z"/><path class="cls-23" d="M9.52,14.17l-.17.35a1.8,1.8,0,0,0-.39,0,.71.71,0,0,0-.54.89.37.37,0,0,0,.5.28,1.2,1.2,0,0,0,.34-.21s0,0,0-.08l0-.36a.12.12,0,0,1,0-.08l.29-.11c0,.24.05.46.07.69a.09.09,0,0,1,0,.06,1.36,1.36,0,0,1-.77.49A.67.67,0,0,1,8,15.43a1.24,1.24,0,0,1,1-1.34A.8.8,0,0,1,9.52,14.17Z"/><path class="cls-24" d="M18.3,10.69a2.3,2.3,0,0,1,.34-.12s.07,0,.09,0l.38.49a.44.44,0,0,0,.09.11c.09-.26.18-.5.25-.75a.34.34,0,0,1,.29-.29l.18-.07c0,.13-.08.24-.12.35-.1.33-.22.66-.32,1a.89.89,0,0,0,0,.28c0,.15,0,.29.05.44l-.39.14c0-.17,0-.33-.05-.49a.36.36,0,0,0-.07-.17l-.65-.88Z"/><path class="cls-25" d="M12,14.92l-.16-1.48-.51.19,0-.36,1.41-.52c0,.12,0,.23,0,.34s0,0-.07.05l-.43.16c0,.33.06.65.1,1,0,.15,0,.29.05.44s0,.1-.08.12Z"/><path class="cls-26" d="M10.65,7.14l.77-.3-.94-1.55a.44.44,0,0,1,.62,0l1.19.8a.69.69,0,0,0,.65.08L17.21,4.5A3.05,3.05,0,0,1,18,4.34a1.89,1.89,0,0,1,.45.09,1.7,1.7,0,0,1,.32.1c.09,0,.2.11.22.19a.32.32,0,0,1-.1.26,8.3,8.3,0,0,1-1.06.57c-.59.25-1.19.46-1.79.7a.21.21,0,0,0-.08.16c.05.13,0,.19-.09.22l-.74.17-.24.07a3.82,3.82,0,0,1-.56.14c-.63.08-1.26.14-1.89.2l-1.26.07s-.09,0-.1,0C11,7.07,10.79,7.16,10.65,7.14Z"/><path class="cls-27" d="M18.1,12.51v0h0v0Z"/></g></g></svg>