<svg xmlns="http://www.w3.org/2000/svg" xmlns:xlink="http://www.w3.org/1999/xlink" viewBox="0 0 92.87 81.83"><defs><style>.cls-1{fill:#02075d;}.cls-2{fill:url(#linear-gradient);}.cls-3{fill:url(#linear-gradient-2);}.cls-4{fill:url(#linear-gradient-3);}.cls-5{fill:url(#linear-gradient-4);}.cls-6{fill:url(#linear-gradient-5);}.cls-7{fill:url(#linear-gradient-6);}.cls-8{fill:url(#linear-gradient-7);}.cls-9{fill:url(#linear-gradient-8);}.cls-10{fill:url(#linear-gradient-9);}.cls-11{fill:url(#linear-gradient-10);}.cls-12{fill:url(#linear-gradient-11);}.cls-13{fill:url(#linear-gradient-12);}.cls-14{fill:url(#linear-gradient-13);}.cls-15{fill:url(#linear-gradient-14);}.cls-16{fill:url(#linear-gradient-15);}.cls-17{fill:url(#linear-gradient-16);}.cls-18{fill:#bd2137;}.cls-19{fill:url(#linear-gradient-17);}.cls-20{fill:url(#linear-gradient-18);}.cls-21{fill:url(#linear-gradient-19);}.cls-22{fill:url(#linear-gradient-20);}.cls-23{fill:url(#linear-gradient-21);}.cls-24{fill:url(#linear-gradient-22);}.cls-25{fill:url(#linear-gradient-23);}.cls-26{fill:url(#linear-gradient-24);}.cls-27{fill:url(#linear-gradient-25);}.cls-28{fill:url(#linear-gradient-26);}</style><linearGradient id="linear-gradient" x1="85.22" y1="10.56" x2="37.36" y2="88.24" gradientUnits="userSpaceOnUse"><stop offset="0" stop-color="#cfae7e"/><stop offset="0.01" stop-color="#d4b687"/><stop offset="0.05" stop-color="#e7d1a6"/><stop offset="0.08" stop-color="#f4e4bc"/><stop offset="0.12" stop-color="#fcf0c9"/><stop offset="0.15" stop-color="#fff4ce"/><stop offset="0.22" stop-color="#f8e5ba"/><stop offset="0.31" stop-color="#f2d6a4"/><stop offset="0.4" stop-color="#edcc97"/><stop offset="0.49" stop-color="#ecc993"/><stop offset="0.58" stop-color="#edcc97"/><stop offset="0.68" stop-color="#f1d5a4"/><stop offset="0.78" stop-color="#f8e4b9"/><stop offset="0.86" stop-color="#fff4ce"/><stop offset="0.89" stop-color="#fdf0ca"/><stop offset="0.92" stop-color="#f5e5bd"/><stop offset="0.96" stop-color="#e9d3a9"/><stop offset="0.99" stop-color="#d7ba8c"/><stop offset="1" stop-color="#cfae7e"/></linearGradient><linearGradient id="linear-gradient-2" x1="80.13" y1="7.39" x2="32.31" y2="84.99" xlink:href="#linear-gradient"/><linearGradient id="linear-gradient-3" x1="82.39" y1="8.76" x2="34.49" y2="86.48" xlink:href="#linear-gradient"/><linearGradient id="linear-gradient-4" x1="56.86" y1="-7.56" x2="8.99" y2="70.12" xlink:href="#linear-gradient"/><linearGradient id="linear-gradient-5" x1="82.01" y1="8.53" x2="34.13" y2="86.23" xlink:href="#linear-gradient"/><linearGradient id="linear-gradient-6" x1="57.32" y1="-7.25" x2="9.47" y2="70.41" xlink:href="#linear-gradient"/><linearGradient id="linear-gradient-7" x1="79.64" y1="6.54" x2="31.41" y2="84.81" xlink:href="#linear-gradient"/><linearGradient id="linear-gradient-8" x1="84.4" y1="9.57" x2="36.18" y2="87.82" xlink:href="#linear-gradient"/><linearGradient id="linear-gradient-9" x1="69.56" y1="0.15" x2="21.31" y2="78.44" xlink:href="#linear-gradient"/><linearGradient id="linear-gradient-10" x1="53.11" y1="-10.24" x2="4.89" y2="68.03" xlink:href="#linear-gradient"/><linearGradient id="linear-gradient-11" x1="58.14" y1="-7.11" x2="9.87" y2="71.21" xlink:href="#linear-gradient"/><linearGradient id="linear-gradient-12" x1="75.5" y1="3.84" x2="27.21" y2="82.2" xlink:href="#linear-gradient"/><linearGradient id="linear-gradient-13" x1="64.69" y1="-2.87" x2="16.5" y2="75.33" xlink:href="#linear-gradient"/><linearGradient id="linear-gradient-14" x1="47.69" y1="-13.82" x2="-0.64" y2="64.61" xlink:href="#linear-gradient"/><linearGradient id="linear-gradient-15" x1="52.09" y1="-10.33" x2="4.29" y2="67.24" xlink:href="#linear-gradient"/><linearGradient id="linear-gradient-16" x1="77.06" y1="4.97" x2="28.89" y2="83.14" xlink:href="#linear-gradient"/><linearGradient id="linear-gradient-17" x1="51.9" y1="-10.49" x2="4.09" y2="67.1" xlink:href="#linear-gradient"/><linearGradient id="linear-gradient-18" x1="51.49" y1="-10.78" x2="3.68" y2="66.81" xlink:href="#linear-gradient"/><linearGradient id="linear-gradient-19" x1="69.09" y1="-0.19" x2="20.83" y2="78.13" xlink:href="#linear-gradient"/><linearGradient id="linear-gradient-20" x1="81.74" y1="7.78" x2="33.45" y2="86.14" xlink:href="#linear-gradient"/><linearGradient id="linear-gradient-21" x1="74.76" y1="3.35" x2="26.47" y2="81.71" xlink:href="#linear-gradient"/><linearGradient id="linear-gradient-22" x1="66.31" y1="-1.84" x2="18.12" y2="76.36" xlink:href="#linear-gradient"/><linearGradient id="linear-gradient-23" x1="83.24" y1="8.76" x2="34.93" y2="87.16" xlink:href="#linear-gradient"/><linearGradient id="linear-gradient-24" x1="71.2" y1="1.08" x2="22.87" y2="79.51" xlink:href="#linear-gradient"/><linearGradient id="linear-gradient-25" x1="65" y1="-2.37" x2="17.25" y2="75.12" xlink:href="#linear-gradient"/><linearGradient id="linear-gradient-26" x1="82.74" y1="8.94" x2="34.98" y2="86.44" xlink:href="#linear-gradient"/></defs><g id="Layer_2" data-name="Layer 2"><g id="Layer_3" data-name="Layer 3"><rect class="cls-1" x="-0.06" y="25.37" width="92.99" height="25.47" rx="6.15" transform="translate(-9.91 17.28) rotate(-19.09)"/><ellipse class="cls-1" cx="46.41" cy="40.92" rx="39.36" ry="40.92"/><path class="cls-2" d="M63.55,59.77c.58-.18,1.16-.38,1.74-.55a26.38,26.38,0,0,1,4.38-1.06,5.93,5.93,0,0,1,.73,0l0,.13a2.82,2.82,0,0,1-.36.24c-1.12.49-2.23,1-3.36,1.46-2.21.88-4.44,1.74-6.66,2.59a2.9,2.9,0,0,1-3.47-.92.24.24,0,0,0-.32-.08l-1.38.53a.52.52,0,0,0-.21.14,2.57,2.57,0,0,1-1.09.72L37.14,69.24a2.23,2.23,0,0,1-1.42.13A.87.87,0,0,1,35.21,68a2,2,0,0,1,1-.81l9.3-3.54,7.3-2.78a2.24,2.24,0,0,1,1.2-.16.61.61,0,0,0,.27,0l1.42-.53c.15-.05.17-.13.16-.28a3,3,0,0,1,1.88-2.93c3.22-1.19,6.45-2.35,9.68-3.51.35-.12.71-.19,1.08-.28.06.29-.12.39-.25.48a18.32,18.32,0,0,1-1.89,1.15c-1.26.64-2.55,1.21-3.83,1.81l-.17.08a.44.44,0,0,0,.59.2c1.89-.64,3.78-1.24,5.68-1.84a1.55,1.55,0,0,1,.48-.07.22.22,0,0,1,.2.11.25.25,0,0,1-.08.22,4.12,4.12,0,0,1-.63.39l-4.92,2.18-.36.14.1.32c.75-.26,1.48-.54,2.22-.77,1.17-.37,2.35-.71,3.53-1.06a1.67,1.67,0,0,1,.39-.06,1,1,0,0,1,.29.1c0,.09-.06.21-.14.26a5,5,0,0,1-.74.44l-5.28,2.28a1.11,1.11,0,0,0-.24.2Z"/><path class="cls-3" d="M51.91,55.31l.9,2.49-.57-.08c-.27.44-.38.49-.87.3-.34.5-.36.51-.89.35-.34.47-.41.5-.89.32-.34.49-.4.51-.9.34-.31.49-.39.52-.87.33-.41.51-.41.51-.9.35-.37.49-.37.49-.91.33-.3.47-.43.52-1,.36a.3.3,0,0,0-.38.13c-.35.48-.53.53-1.08.33a.3.3,0,0,0-.38.12.74.74,0,0,1-1.08.26.31.31,0,0,0-.4.08c-.42.43-.57.45-1.13.17a.26.26,0,0,0-.35,0c-.48.42-.63.43-1.17.09a.3.3,0,0,0-.38,0c-.47.34-.66.34-1.12,0a.35.35,0,0,0-.46,0,.69.69,0,0,1-1-.21.42.42,0,0,0-.49-.17c-.54.11-.77,0-.94-.57a.56.56,0,0,0-.36-.4,3.64,3.64,0,0,1-.52-.35l0-.1,1.48-.56Q51.1,53.31,66.93,47.37a3.24,3.24,0,0,1,1.12-.17.87.87,0,0,1,.85.54.82.82,0,0,1-.2.94,3.07,3.07,0,0,1-1,.66Q60,52.28,52.2,55.19Z"/><path class="cls-4" d="M45.19,78.88a34.83,34.83,0,0,1-21.88-8.14c-1.09-.9-2.08-1.91-3.12-2.88-.28-.27-.31-.5-.11-.7s.4-.13.66.15a34.77,34.77,0,0,0,9.49,7A33,33,0,0,0,41.44,77.8a33.88,33.88,0,0,0,28.14-9.31A35,35,0,0,0,80.14,49c.28-1.42.39-2.87.58-4.31,0-.31.19-.47.44-.45s.35.19.33.52A38.14,38.14,0,0,1,78.54,57a36.3,36.3,0,0,1-7.12,10.82A35.26,35.26,0,0,1,52.9,78.14,36.62,36.62,0,0,1,45.19,78.88Z"/><path class="cls-5" d="M10,34.21c.2-1,.37-2.09.61-3.13A36.47,36.47,0,0,1,19.32,14.3,35.19,35.19,0,0,1,38.61,3.37,34.12,34.12,0,0,1,47,2.73a35,35,0,0,1,20,7.32c.76.58,1.49,1.22,2.22,1.84.29.24.33.44.16.63s-.42.18-.68,0A34.77,34.77,0,0,0,56.25,5.24a32.75,32.75,0,0,0-8.91-1.7A34,34,0,0,0,22,12.76a35.41,35.41,0,0,0-10.75,19c-.18.83-.3,1.67-.44,2.51,0,.26-.23.43-.44.39A.44.44,0,0,1,10,34.21Z"/><path class="cls-6" d="M47.21,75.38A32.74,32.74,0,0,1,31.65,72a33.09,33.09,0,0,1-7.9-5.49c-.29-.27-.33-.44-.18-.64s.39-.22.64,0c.9.76,1.76,1.56,2.69,2.27a31.44,31.44,0,0,0,13,5.86,29.62,29.62,0,0,0,6,.58,30.85,30.85,0,0,0,17.33-5.28A32.26,32.26,0,0,0,77.11,48.65c.2-.92.32-1.86.47-2.79,0-.31.21-.47.43-.43s.37.23.33.55A33.62,33.62,0,0,1,75,57.09a32.7,32.7,0,0,1-14,14.5A31.34,31.34,0,0,1,50.74,75C49.35,75.22,47.94,75.31,47.21,75.38Z"/><path class="cls-7" d="M13.43,32.91c.21-.91.4-1.82.65-2.72a33.32,33.32,0,0,1,8.07-14.43A32.07,32.07,0,0,1,39.3,6.24a30.59,30.59,0,0,1,7.81-.59,32.18,32.18,0,0,1,19,7.41c.25.2.3.43.14.62s-.39.18-.65,0a31.47,31.47,0,0,0-5.93-3.87,30.63,30.63,0,0,0-9.29-3,30.94,30.94,0,0,0-22.58,5.16A31.65,31.65,0,0,0,17.22,24.11a33.27,33.27,0,0,0-3,8.92c-.05.25-.17.39-.43.34S13.45,33.16,13.43,32.91Z"/><path class="cls-8" d="M71,19.74c.1.94.19,1.84.29,2.74l.57,5.45c0,.4.1.8.12,1.21a.34.34,0,0,1-.15.26c-.46.19-.93.34-1.39.53a.32.32,0,0,1-.41-.11l-4.39-4.2-.17-.16c0,.26,0,.47.06.69.17,1.72.36,3.45.53,5.17,0,.09,0,.25-.08.27-.57.23-1.15.44-1.75.67-.09-.8-.17-1.56-.25-2.33l-.57-5.42c-.05-.55-.12-1.11-.16-1.67a.29.29,0,0,1,.13-.23c.49-.2,1-.39,1.48-.56a.34.34,0,0,1,.29.1c1.49,1.4,3,2.82,4.44,4.23l.18.16c0-.39-.06-.71-.09-1-.17-1.61-.34-3.21-.52-4.81,0-.19,0-.29.21-.36C70,20.16,70.47,20,71,19.74Z"/><path class="cls-9" d="M73.91,28.64c-.14-1.34-.28-2.63-.42-3.92-.19-1.81-.37-3.61-.56-5.42,0-.22,0-.29.23-.36l3.46-1.29a4.08,4.08,0,0,1,2.51-.21,3.18,3.18,0,0,1,2.31,2.63,6.23,6.23,0,0,1-3.77,7.15C76.44,27.72,75.19,28.16,73.91,28.64Zm1.77-2.57c.72-.29,1.42-.5,2.06-.83a3.7,3.7,0,0,0,1.78-4,2,2,0,0,0-2.9-1.65L75.45,20c-.41.15-.4.15-.36.6.12,1.11.24,2.22.35,3.33C75.52,24.62,75.59,25.32,75.68,26.07Z"/><path class="cls-10" d="M51.46,33.79l2.14,2.47-.65.25c-.44.16-.88.31-1.31.49a.29.29,0,0,1-.42-.12c-.43-.61-.89-1.19-1.32-1.8a.29.29,0,0,0-.42-.12c-.48.2-1,.38-1.47.56a.24.24,0,0,0-.2.31c.08.71.15,1.43.24,2.15,0,.26,0,.39-.29.48-.54.18-1.07.4-1.64.61-.09-.83-.17-1.63-.26-2.42l-.57-5.45c0-.52-.11-1-.15-1.55a.32.32,0,0,1,.11-.23c1.48-.54,3-1.1,4.46-1.59a2.56,2.56,0,0,1,1.2-.06,2.18,2.18,0,0,1,1.79,2.16A4.48,4.48,0,0,1,51.46,33.79Zm-3.86,0c.7-.27,1.4-.51,2.07-.81a1.83,1.83,0,0,0,1.15-1.37A1.68,1.68,0,0,0,50.49,30c-.44-.42-1-.23-1.46-.07h0c-.48.18-1,.38-1.45.54-.25.07-.29.2-.26.44C47.4,31.82,47.49,32.77,47.6,33.77Z"/><path class="cls-11" d="M24,47.36l-2,.74-.39-3.76-.32.1-3.27,1.22c-.22.08-.27.19-.24.42.12,1.06.22,2.12.34,3.18a.3.3,0,0,1-.24.39c-.55.19-1.1.41-1.68.62,0-.21-.06-.39-.08-.58q-.3-3-.62-6c-.09-.88-.17-1.76-.28-2.64,0-.28,0-.43.3-.52.54-.17,1.06-.39,1.62-.59l.42,4,.33-.11,3.24-1.2a.35.35,0,0,0,.26-.45q-.19-1.72-.36-3.45a.32.32,0,0,1,.13-.27L23,37.76Z"/><path class="cls-12" d="M31.42,34.64l.19,1.78-.35.14L27.3,38a.31.31,0,0,0-.25.39c.07.57.12,1.15.19,1.76l4.13-1.54c.06.59.13,1.14.17,1.69,0,.07-.13.18-.22.21l-3.6,1.36-.29.12.22,2.08,4.72-1.77c.06.6.12,1.16.17,1.72,0,0-.08.13-.14.16L26,46.62a.4.4,0,0,1-.11,0c-.11-1-.21-1.93-.31-2.9l-.51-4.9c-.06-.53-.12-1-.15-1.58a.26.26,0,0,1,.14-.23c2.08-.8,4.17-1.58,6.27-2.36Z"/><path class="cls-13" d="M58.73,24.36l4.67,8.22-2.09.79c-.24-.45-.49-.89-.72-1.33-.1-.21-.19-.27-.43-.18-1.14.45-2.3.86-3.45,1.31a.51.51,0,0,0-.26.31c-.13.5-.26,1-.35,1.51a.58.58,0,0,1-.44.51c-.55.17-1.08.39-1.67.61.19-.76.36-1.46.54-2.17.7-2.84,1.41-5.68,2.1-8.52A.51.51,0,0,1,57,25C57.56,24.81,58.12,24.58,58.73,24.36ZM57,31.23l2.66-1-1.71-3.16Z"/><path class="cls-14" d="M43.67,31.4l-.91,1.92a7.79,7.79,0,0,0-1.1-.29,3.39,3.39,0,0,0-3.42,2.13,3.75,3.75,0,0,0-.28,2.4A2.09,2.09,0,0,0,41.13,39a8.18,8.18,0,0,0,1.23-.89.45.45,0,0,0,.11-.34c0-.69-.12-1.38-.2-2.06,0-.19,0-.27.19-.34.48-.16,1-.35,1.48-.55.09.78.17,1.53.25,2.29l.12,1.24a.45.45,0,0,1-.07.28,7.31,7.31,0,0,1-4.1,2.68,3.47,3.47,0,0,1-4.22-3.13,6.52,6.52,0,0,1,5-7.14A4.1,4.1,0,0,1,43.67,31.4Z"/><path class="cls-15" d="M9.85,44.64l-2.61,1-.19-1.86,7.17-2.69c.07.6.14,1.17.19,1.74,0,.06-.13.17-.21.2l-2.39.9.21,2c.18,1.8.37,3.59.57,5.39,0,.27-.05.38-.31.47-.53.17-1,.38-1.62.6Z"/><path class="cls-16" d="M38.75,28.56c0,.25-.19.33-.38.4l-3,1.12L12.1,38.74c-.38.14-.59.1-.68-.14s.05-.42.42-.55l26.29-9.8C38.5,28.11,38.76,28.31,38.75,28.56Z"/><path class="cls-17" d="M56,44.85l-1.41-3.59a2.16,2.16,0,0,0-.08.24c-.18,1.3-.36,2.61-.55,3.92a.42.42,0,0,1-.19.26c-.33.15-.68.26-1.05.4L50.45,41l1.27-.48,1.47,3.77h.06c.06-.4.11-.8.17-1.2.14-1.06.27-2.12.42-3.17a.33.33,0,0,1,.19-.25c.3-.14.62-.25,1-.38L56.49,43h.06c.09-.65.18-1.31.26-2s.2-1.59.32-2.38a.33.33,0,0,1,.17-.24c.33-.15.68-.27,1.06-.41-.1.62-.2,1.21-.3,1.8-.26,1.46-.51,2.91-.76,4.37a.37.37,0,0,1-.28.34C56.7,44.59,56.39,44.72,56,44.85Z"/><path class="cls-18" d="M9,57c-.08-.08-.22-.16-.27-.29a.3.3,0,0,1,.17-.41c.17-.08.35-.14.53-.21L29,48.78c.37-.14.57-.11.66.12s0,.41-.41.55L9.32,56.92Z"/><path class="cls-19" d="M16.39,34.88c-.08-.09-.23-.18-.28-.31a.32.32,0,0,1,.22-.43l1-.4,18.8-7,.29-.1a.36.36,0,0,1,.28.66,1.47,1.47,0,0,1-.22.1L16.67,34.79Z"/><path class="cls-18" d="M29.06,51.84c0,.24-.19.32-.37.39l-3.11,1.16-15.94,6-.19.07a.3.3,0,0,1-.39-.22.65.65,0,0,1,.14-.43.68.68,0,0,1,.32-.15l18.94-7.11C28.82,51.4,29.07,51.53,29.06,51.84Z"/><path class="cls-18" d="M88.07,32.54c0,.19-.17.28-.36.35l-3.19,1.2-15.47,5.8c-.33.13-.52.07-.61-.16s0-.4.37-.53l14.84-5.57,3.85-1.44C87.83,32.07,88.06,32.2,88.07,32.54Z"/><path class="cls-18" d="M9.34,61.52c0-.24.16-.34.36-.41l3.39-1.27,15-5.61.16-.06a.35.35,0,0,1,.5.21c.09.2,0,.39-.26.49-.8.31-1.61.6-2.41.9L10,61.81C9.61,61.94,9.35,61.81,9.34,61.52Z"/><path class="cls-20" d="M17.59,32.18c-.09-.1-.24-.2-.29-.34a.36.36,0,0,1,.25-.46c.27-.12.56-.22.84-.32l18.67-6.92c.42-.16.64-.11.73.17s-.06.42-.48.58L17.92,32.08Z"/><path class="cls-21" d="M41.56,49.14c0,.34.08.64.09.94a.22.22,0,0,1-.11.2l-3.88,1.47L37.05,46,41,44.5c0,.34.08.66.09,1,0,.07-.12.17-.2.2l-2.31.88-.21.08.12,1.21L41,46.93c0,.31,0,.6.1.87s0,.25-.2.31L39,48.82,38.6,49l.13,1.24Z"/><path class="cls-18" d="M69.93,37.11c-.08-.08-.24-.17-.26-.28a.61.61,0,0,1,.13-.41.81.81,0,0,1,.35-.16l17-6.37.18-.06a.36.36,0,0,1,.26.67l-.26.11L72.42,36.19l-2.2.82Z"/><path class="cls-22" d="M64.13,41.81l-1.27.48-.52-1-.8.3c-.44.16-.87.34-1.31.48a.4.4,0,0,0-.32.38,1.25,1.25,0,0,1-1.17,1.35,1.5,1.5,0,0,0-.27.08c.15-.62.29-1.2.44-1.79.37-1.49.75-3,1.11-4.48a.54.54,0,0,1,.4-.45c.29-.09.58-.21.9-.33Zm-3.31-3.29L60.26,41l1.58-.59Z"/><path class="cls-23" d="M48.7,41.61l2.8,4.94c-.38.15-.74.29-1.11.41a.28.28,0,0,1-.24-.12c-.16-.24-.29-.5-.44-.77-.75.28-1.49.55-2.23.84a.32.32,0,0,0-.15.19,2.41,2.41,0,0,0-.14.59.7.7,0,0,1-.64.72,5.53,5.53,0,0,0-.69.26c0-.22.08-.4.13-.58.47-1.92.95-3.83,1.42-5.75a.48.48,0,0,1,.35-.39Zm.52,3.52-1-1.87-.56,2.47Z"/><path class="cls-18" d="M70.46,34.48c-.09-.1-.23-.19-.28-.32a.33.33,0,0,1,.22-.43c.33-.14.66-.26,1-.38l15.38-5.77.19-.07a.37.37,0,1,1,.25.69c-.36.15-.73.28-1.1.42l-15.3,5.73Z"/><path class="cls-24" d="M36.2,47.14l-.52,1.09a5.73,5.73,0,0,0-1.22-.08A2.25,2.25,0,0,0,32.81,51a1.17,1.17,0,0,0,1.56.86,5.27,5.27,0,0,0,1-.63.38.38,0,0,0,.06-.27c0-.38-.08-.75-.1-1.12a.29.29,0,0,1,.12-.25c.27-.13.56-.22.88-.34.08.74.15,1.44.22,2.14a.34.34,0,0,1-.07.19,4.32,4.32,0,0,1-2.39,1.56,2.09,2.09,0,0,1-2.6-2,3.9,3.9,0,0,1,3.15-4.2A2.38,2.38,0,0,1,36.2,47.14Z"/><path class="cls-25" d="M63.05,36.22c.38-.14.71-.28,1-.38a.35.35,0,0,1,.27.12c.4.5.78,1,1.17,1.53l.27.35c.28-.83.57-1.59.78-2.38a1.1,1.1,0,0,1,.88-.91,3.55,3.55,0,0,0,.54-.19l-.34,1.09c-.33,1-.67,2.08-1,3.12a2.67,2.67,0,0,0-.09.89c0,.45.09.91.14,1.37l-1.18.45c-.06-.54-.1-1-.17-1.54a1.23,1.23,0,0,0-.2-.52c-.65-.93-1.32-1.85-2-2.77A1.76,1.76,0,0,0,63.05,36.22Z"/><path class="cls-26" d="M43.62,49.51l-.49-4.64-1.55.58-.13-1.12,4.32-1.63c0,.37.08.71.09,1,0,.06-.12.14-.2.17-.44.18-.89.34-1.34.51.11,1,.21,2,.31,3,0,.45.09.91.15,1.36a.28.28,0,0,1-.23.37C44.24,49.26,44,49.38,43.62,49.51Z"/><path class="cls-27" d="M39.65,25.08,42,24.14,39.13,19.3a1.31,1.31,0,0,1,1.9-.11l3.63,2.51a2,2,0,0,0,2,.24c4.36-1.72,8.71-3.45,13.08-5.13a8.78,8.78,0,0,1,2.27-.5,4.2,4.2,0,0,1,1.36.29,4.79,4.79,0,0,1,1,.29c.27.13.61.35.67.59a1,1,0,0,1-.31.84,27.48,27.48,0,0,1-3.23,1.78c-1.81.8-3.67,1.46-5.5,2.2a.63.63,0,0,0-.23.51c.16.4,0,.59-.29.67-.74.21-1.49.37-2.24.55l-.75.2a11.74,11.74,0,0,1-1.71.47q-2.9.35-5.8.6c-1.28.12-2.57.16-3.86.24-.1,0-.27,0-.29,0C40.56,24.88,40.07,25.15,39.65,25.08Z"/><path class="cls-28" d="M62.45,42l0,0h-.11a.23.23,0,0,1,0,0Z"/></g></g></svg>