<svg xmlns="http://www.w3.org/2000/svg" xmlns:xlink="http://www.w3.org/1999/xlink" viewBox="0 0 697.87 322.21"><defs><style>.cls-1{fill:none;}.cls-2{clip-path:url(#clip-path);}.cls-3{fill:#e7e5e4;}</style><clipPath id="clip-path" transform="translate(120.13 19.32)"><rect class="cls-1" width="468.61" height="272.47"/></clipPath></defs><g id="Layer_2" data-name="Layer 2"><g id="Layer_3" data-name="Layer 3"><g class="cls-2"><path class="cls-3" d="M577.52,258.48a1.42,1.42,0,0,0-1-.41,4.27,4.27,0,0,0-1.56.43,5.08,5.08,0,0,1-.68.26c-.58-.19-.78-.71-1.08-1.64-.08-.23-.15-.46-.24-.69a3.64,3.64,0,0,1-.2-1.06l0-.37a5.7,5.7,0,0,1,0-.9,2.87,2.87,0,0,0-.41-2.28,2,2,0,0,0-1.74-.55,1.58,1.58,0,0,0-1.19.61c-.58.74-.37,1.9-.17,3a7.07,7.07,0,0,1,.16,1.64c-.29,2.17-2,3.28-3.58,4.36a17.17,17.17,0,0,0-1.75,1.28.67.67,0,0,0-.23.5,2.08,2.08,0,0,0,.88,1.65,1.74,1.74,0,0,1,.4.43,2.87,2.87,0,0,1-1,.69c-.76.42-1.81,1-1.88,2.23a.71.71,0,0,0,.27.59,2.28,2.28,0,0,0,1.45.48,6.37,6.37,0,0,0,3.2-1.24,9.23,9.23,0,0,0,1.6-1.53,9.23,9.23,0,0,1,1.09-1.14c.33-.27.64-.56.94-.85a5.62,5.62,0,0,1,1.84-1.33,2.58,2.58,0,0,1,.56.09,2.58,2.58,0,0,0,1.46,0,6.86,6.86,0,0,0,3-3.49A.68.68,0,0,0,577.52,258.48Z" transform="translate(120.13 19.32)"/><path class="cls-3" d="M561,266.52a3,3,0,0,1-.87-.46c-.75-.48-1.7-.92-2.45-.43l-.87.54c-1.46.92-3,1.87-4.46,3a43.73,43.73,0,0,1-7.72,4c-1.44.63-2.93,1.29-4.24,1.94a11.29,11.29,0,0,1-1.85.59,9.59,9.59,0,0,0-3.06,1.16c-1.13.84-1.15,1.66-1,2.19.47,1.42,3,2.07,4.49,2.07h.38c1.7-.13,3.43-1.28,5-2.31l.91-.59a43.25,43.25,0,0,1,4.8-2.8,4.25,4.25,0,0,1,1.59-.27,5.33,5.33,0,0,0,1.79-.29,3.29,3.29,0,0,0,1.43-1.43,3.54,3.54,0,0,1,.58-.73c.49-.32,1-.62,1.54-.93,1.93-1.11,3.92-2.28,4.58-4.26a.74.74,0,0,0-.06-.58A.7.7,0,0,0,561,266.52Z" transform="translate(120.13 19.32)"/><path class="cls-3" d="M536.2,190.17c-.41-1.61-3.18-3.4-4.38-4a4.47,4.47,0,0,0-2-2.2c-.84-.57-1.18-.86-1.16-1.39a2.92,2.92,0,0,1,.73-.43c.62-.28,1.56-.72,1.49-1.7-.09-1.29-1.76-1.87-3.24-2.38a10.54,10.54,0,0,1-1.17-.46,2.92,2.92,0,0,1-.54-.9,4.3,4.3,0,0,0-.58-1c-1.54-1.83-4.38-2.79-7.12-3.72l-1.76-.62a5.56,5.56,0,0,1-1.17-.66,5.58,5.58,0,0,0-1.62-.86,9.87,9.87,0,0,0-1.75-.26,5.26,5.26,0,0,1-1.48-.24,6.14,6.14,0,0,1-1.34-.77,4.42,4.42,0,0,0-2.1-.94h-.23a8,8,0,0,0-3.77,1.49,6.25,6.25,0,0,0-1.6,1.71c-.45.63-1,1.34-1.43,1.34h0c-.65,0-2-1.8-2.14-2.41a2.21,2.21,0,0,1,.27-.58,1.93,1.93,0,0,0,.39-1.55c-.47-1.5-4.15-3.83-5.84-3.57a2.6,2.6,0,0,0-1.92,1.59,4.82,4.82,0,0,0,.06,4.29,2.58,2.58,0,0,0,1.37.94,2.35,2.35,0,0,1,.72.38,1.74,1.74,0,0,1-.16.42,1.46,1.46,0,0,0-.19,1.32c.81,1.76,3,2.24,5,2.71a14.46,14.46,0,0,1,3.48,1.08c.79.41,1.5.82,2.18,1.23l.51.28a6.39,6.39,0,0,1,1.2.79c.74.67,1.75,2,1.66,2.7,0,.19-.43.49-.74.74-.7.54-1.76,1.35-1.41,2.77a1.72,1.72,0,0,0,1.77,1.42,6.52,6.52,0,0,0,2-.49,8.55,8.55,0,0,1,1.51-.38c.43.06.86.53,1.31,1a5,5,0,0,0,2,1.55,6.2,6.2,0,0,0,2,.29l1.3,0q.55,0,1.2.06a.72.72,0,0,0,.43-.09,5.66,5.66,0,0,0,2-2.09c.58-.9.93-1.37,1.75-1.46a4.8,4.8,0,0,1,3,.9,10.64,10.64,0,0,1,1.53,1.89,9.31,9.31,0,0,0,1.82,2.14,8.63,8.63,0,0,0,4,1.71,7.06,7.06,0,0,1,.82.23,5.12,5.12,0,0,0,1.44.29,1.87,1.87,0,0,0,1.37-.55A1.59,1.59,0,0,0,536.2,190.17Z" transform="translate(120.13 19.32)"/><path class="cls-3" d="M483.08,81.65a1.83,1.83,0,0,1,.64.24,2.56,2.56,0,0,0,1.74.34,3,3,0,0,0,1.61-1.45,2.75,2.75,0,0,1,.87-1,10.75,10.75,0,0,1,2.6-.66c1.66-.29,3.38-.59,4.46-1.93a.74.74,0,0,0,.13-.64c-.35-1.23-.83-2.63-1.29-4l-.32-.92a3.2,3.2,0,0,0-1-1.26c-.15-.13-.38-.34-.4-.37a3.26,3.26,0,0,1,.16-1.12,4.21,4.21,0,0,0,.17-1.72c-.45-2.68-3.61-5.69-6.27-6,0,0-.06,0-.09,0a5.69,5.69,0,0,0,.18-.71c0-.1,0-.23,0-.23s.09-.07.44-.15a3.29,3.29,0,0,1,1.34.14,4.35,4.35,0,0,0,1.88.17,2.77,2.77,0,0,0,1.52-1.29,3.56,3.56,0,0,1,.49-.61.84.84,0,0,1,.39-.1,1.46,1.46,0,0,0,1.33-.89.59.59,0,0,0,.06-.32c-.14-2.26-1.84-2.52-3.49-2.78l-.51-.08a13,13,0,0,1-4-1.67c-1.33-.73-2.38-1.28-3.23-1.1a.75.75,0,0,0-.6.69,1.46,1.46,0,0,0-.17,1.05,10.57,10.57,0,0,0,.56,1.16,2.23,2.23,0,0,1,.4,2c-.07.27-.15.52-.23.74a4.79,4.79,0,0,0-.34,1.72c.06,1.54,1.63,2.7,3.09,3h0c-.85,1.51.27,3,1,4.09a5.22,5.22,0,0,1,.85,1.35,4,4,0,0,1-1.89,4.34,1.63,1.63,0,0,1-.45.07,2.65,2.65,0,0,0-1.37.43,2.79,2.79,0,0,0-.82,1.34c-.21.55-.42,1.11-.84,1.28a13.08,13.08,0,0,1-2.9.72c-.54.1-1.11.2-1.71.33a9.59,9.59,0,0,0-3.73,2.43c-.15.16-.39.37-.67.62-1.39,1.23-2.44,2.25-2.41,3.22a3.9,3.9,0,0,0,1.44,2.31,9.38,9.38,0,0,1,.94,1c.72.93,1.78,2.34,3.25,2.34l.33,0c1.46-.23,1.49-1.77,1.52-2.89a4.47,4.47,0,0,1,.19-1.52,4.16,4.16,0,0,0,3.34-1A3.17,3.17,0,0,1,483.08,81.65Z" transform="translate(120.13 19.32)"/><path class="cls-3" d="M470.22,190.52h0a.68.68,0,0,0,.49.2h.07a10.06,10.06,0,0,0,4.53-1.55c.31-.18.66-.35,1-.52a5.28,5.28,0,0,0,3.07-2.75.67.67,0,0,0,0-.54.71.71,0,0,0-.4-.36,5.67,5.67,0,0,0-1.79-.31,8,8,0,0,0-4.2,1.52l-.76.44c-1.07.58-2.42,1.3-2.42,3.23A.72.72,0,0,0,470.22,190.52Z" transform="translate(120.13 19.32)"/><path class="cls-3" d="M464.15,164.62a.83.83,0,0,1,.37-.15,13.75,13.75,0,0,1,3.79.21,19.17,19.17,0,0,0,2.57.25c1.88,0,2.88-.8,3-2.41a.7.7,0,0,0-.36-.65,3.87,3.87,0,0,0-1.93-.44c-.37,0-.76,0-1.17.06s-.83.06-1.29.06h0a8.06,8.06,0,0,1-2-.34,5.9,5.9,0,0,0-2-.3,3.37,3.37,0,0,0-2.92,3.14.72.72,0,0,0,.47.69A1.72,1.72,0,0,0,464.15,164.62Z" transform="translate(120.13 19.32)"/><path class="cls-3" d="M469.47,179.51a3.29,3.29,0,0,0,.54,0,.84.84,0,0,0,.29-.13c.73-.54.65-1.64.58-2.7a8.53,8.53,0,0,1,0-1,.74.74,0,0,0-.15-.48,7.9,7.9,0,0,1-1.22-2.77,12.86,12.86,0,0,0-.94-2.46,4.58,4.58,0,0,1,.88-.72,2.84,2.84,0,0,0,1.63-2.7.69.69,0,0,0-.56-.63,6.14,6.14,0,0,0-3.75.78,4.9,4.9,0,0,1-1.73.57c-.07,0-.15,0-.13,0a4,4,0,0,1-.48-.5c-.52-.57-1.1-1.23-1.88-1.23h0c-1.61.07-1.79,1.72-1.9,2.81a5.94,5.94,0,0,1-.21,1.19,3.12,3.12,0,0,1-.69.85,2.75,2.75,0,0,0-1.08,2,2.38,2.38,0,0,0,1.05,1.58,2,2,0,0,1,.78,1,4.12,4.12,0,0,1-.06,1.35c-.12.79-.33,2.1,1.1,2.53a2.53,2.53,0,0,0,.69.11c1.7,0,1.78-1.94,1.84-3.35a7.93,7.93,0,0,1,.19-1.74l.31.6C465.62,176.6,467.12,179.51,469.47,179.51Z" transform="translate(120.13 19.32)"/><path class="cls-3" d="M466,186.75a.64.64,0,0,0,.05-.45,2.21,2.21,0,0,0-2.3-1.57,2,2,0,0,0-1.93,1.09.66.66,0,0,0,0,.46,2.4,2.4,0,0,0,2.39,1.46A1.93,1.93,0,0,0,466,186.75Z" transform="translate(120.13 19.32)"/><path class="cls-3" d="M460.53,187.33a1.87,1.87,0,0,0-1.59.78.71.71,0,0,0-.1.6c.39,1.3,2,2.23,3.28,2.64a.53.53,0,0,0,.21,0,.74.74,0,0,0,.45-.15,1.4,1.4,0,0,0,.4-1c0-.07,0-.17,0-.1a.74.74,0,0,0,.15-.45A2.73,2.73,0,0,0,460.53,187.33Z" transform="translate(120.13 19.32)"/><path class="cls-3" d="M455,187.83h.41a.69.69,0,0,0,.54-.26c.07-.08.28-.18.89-.18l.78,0c.28,0,.57,0,.83,0a2.12,2.12,0,0,0,1.83-.71.69.69,0,0,0,.11-.56,2.17,2.17,0,0,0-2.41-1.73,10.51,10.51,0,0,0-1.91.24c-.39.07-.75.14-1.09.17h-.17a5.78,5.78,0,0,1-.71,0c-.3,0-.61-.06-.88-.06a1.72,1.72,0,0,0-1.78,1,.78.78,0,0,0,0,.43C451.76,187.78,453.54,187.81,455,187.83Z" transform="translate(120.13 19.32)"/><path class="cls-3" d="M533.08,225.83c-.17-.25-.36-.51-.52-.76a8.38,8.38,0,0,0-1-1.2,4.22,4.22,0,0,1-1-1.32,1.94,1.94,0,0,1,.13-.77,1.67,1.67,0,0,0,0-1.35,2.68,2.68,0,0,0-1.31-1,1.62,1.62,0,0,1-.82-.58,8.77,8.77,0,0,1-.45-1.11,6.14,6.14,0,0,1-.34-2.29.77.77,0,0,0-.14-.44,6.57,6.57,0,0,0-2.6-1.92,4.18,4.18,0,0,1-1.86-1.37,3.55,3.55,0,0,1-.29-2.18,9.44,9.44,0,0,0,0-2.11,8.62,8.62,0,0,0-.39-1.43,6.65,6.65,0,0,1-.41-1.62,4,4,0,0,1,.1-.84,4.16,4.16,0,0,0,.12-1.36c-.23-1.67-1.58-2.09-2.57-2.39a6.48,6.48,0,0,1-.82-.29c.16-2.72-.43-6.12-2.2-8a.71.71,0,0,0-.78-.17c-1.65.67-2.18,2.8-2.64,4.68-.09.34-.17.67-.26,1a2.42,2.42,0,0,1-.56.53,2.47,2.47,0,0,0-1.06,1.34,20.11,20.11,0,0,0-.26,2.46,10.52,10.52,0,0,1-.68,3.73c-.81,1.77-1.91,3-2.74,3-.34,0-.6-.36-1-.94a4,4,0,0,0-1.06-1.21,1.56,1.56,0,0,0-.55-.15,3.82,3.82,0,0,0-.72.11,3,3,0,0,0-.48.14,3.7,3.7,0,0,1-.42-.59,4.79,4.79,0,0,0-1.42-1.65,10.59,10.59,0,0,0-1.55-.74c-1-.42-2.08-.88-2.07-1.47s.74-1,1.95-1.47a.65.65,0,0,0,.34-.29l.21-.33a3.53,3.53,0,0,0,.51-1.12,5.75,5.75,0,0,1,.31-.78,3.58,3.58,0,0,0,.47-2,2,2,0,0,0-2.21-1.81,9,9,0,0,0-1.25.12,5.84,5.84,0,0,1-1,.09,13,13,0,0,1-3.8-1,10.28,10.28,0,0,0-2.75-.79.64.64,0,0,0-.49.17,1.33,1.33,0,0,0-.18,1.81,1.34,1.34,0,0,1,.18.41,2.55,2.55,0,0,1-1.4,0,5.59,5.59,0,0,0-2,0c-1.58.38-2.45,1.79-3.21,3-.2.33-.4.65-.61.94a11.86,11.86,0,0,0-.69,1.16c-.25.44-.71,1.29-.94,1.38-.82.21-1.43-.23-2.18-.78a4.87,4.87,0,0,0-2.46-1.16l-.43-.06a3.91,3.91,0,0,0-2.16,0,20.56,20.56,0,0,0-3.3,2.11,4.42,4.42,0,0,0-1.24,2.06,3.33,3.33,0,0,1-.7,1.3,6.15,6.15,0,0,1-1.62.46l-.65.14a3,3,0,0,0-1.07.6,1.89,1.89,0,0,1-.51.34,2.76,2.76,0,0,0-1.58,2.17,8.16,8.16,0,0,1-.37,1.13,11.07,11.07,0,0,1-3.55,3.79,7.83,7.83,0,0,1-2.63.74c-.48.08-1,.16-1.48.27a12.34,12.34,0,0,0-2.62,1,13.43,13.43,0,0,1-1.6.72,3.47,3.47,0,0,1-.4-.24,2.27,2.27,0,0,0-1.5-.54,8.12,8.12,0,0,0-3.66,2.07,12.48,12.48,0,0,1-2.22,1.57c-.15.07-.4.15-.66.24a4.15,4.15,0,0,0-2.19,1.24,3.9,3.9,0,0,0-.36,1.44,4.52,4.52,0,0,1-.18,1,5,5,0,0,1-.8,1.28,3,3,0,0,0-.87,2,3.11,3.11,0,0,0,.87,2c.39.46.42.56.35.79a2.3,2.3,0,0,1-.61.3c-.57.23-1.35.54-1.53,1.38a2.39,2.39,0,0,0,.31,1.37,3.12,3.12,0,0,1,.33.94,6.54,6.54,0,0,1,0,.76,5.91,5.91,0,0,0,0,.87,13.73,13.73,0,0,0,.34,1.53,7.29,7.29,0,0,1,.33,1.86,5.56,5.56,0,0,1-.2,1.26,6.8,6.8,0,0,0-.25,1.36,5.69,5.69,0,0,0,.34,2,3.85,3.85,0,0,1,.23,1.11,8.62,8.62,0,0,1-1.15,3.41,3.86,3.86,0,0,1-.76.64c-.73.51-1.63,1.16-1.62,2.15,0,1.36,1.18,2.23,2.12,2.92.23.17.45.33.63.48a.75.75,0,0,0,.36.17c3.15.48,5.08-.71,6.77-1.73a10.65,10.65,0,0,1,2.51-1.24,15.34,15.34,0,0,1,5-.41,25.18,25.18,0,0,0,3.25-.05.76.76,0,0,0,.38-.16c2.73-2.29,5.17-3.68,7.22-4a4.13,4.13,0,0,1,.89.15,5.1,5.1,0,0,0,1.25.2h.24a18.55,18.55,0,0,0,3.67-.86,13.31,13.31,0,0,1,6.17-.8,17.73,17.73,0,0,1,4.18,1.58,11,11,0,0,1,1.94,3.27,2.1,2.1,0,0,1,0,.56,1.62,1.62,0,0,0,1.24,1.92,3.12,3.12,0,0,0,2.57-.91,8,8,0,0,1,.71-.49c.39-.24.85-.5,1.33-.74,0,.09,0,.19,0,.28l0,.33a.65.65,0,0,0,.33.57c.28.18.09.82-.19,1.57a6.31,6.31,0,0,0-.2.62.69.69,0,0,0,0,.49,3.11,3.11,0,0,0,1.24,1.18c.43.27.71.46.72.66s-.14.45-.4.8a2.65,2.65,0,0,0-.68,2c.26,2.1,2.18,2.52,3.72,2.85.45.1.9.2,1.33.33a2.1,2.1,0,0,1,.76.52,2,2,0,0,0,1.31.67h0a4.28,4.28,0,0,0,2.4-.91,2.17,2.17,0,0,1,1-.48h0a3.25,3.25,0,0,1,1,.46,4.09,4.09,0,0,0,2,.66,6.63,6.63,0,0,0,2.51-.92c.6-.3,1.27-.64,2.06-1a12.32,12.32,0,0,1,3.31-.67l.35,0c2-.22,2.92-1.76,3.74-3.12a13,13,0,0,1,1-1.52,13.16,13.16,0,0,1,1.71-1.5,16.82,16.82,0,0,0,2-1.74l.14-.15a37.46,37.46,0,0,1,3.39-3.28c.42-.34.85-.65,1.28-1s.85-.61,1.26-.94a18.53,18.53,0,0,0,4.14-4.73l.12-.2a38.37,38.37,0,0,0,2.83-5.35,28.46,28.46,0,0,0,1.22-4.34l.07-.32a7.39,7.39,0,0,0,.18-3.34A6.07,6.07,0,0,0,533.08,225.83Z" transform="translate(120.13 19.32)"/><path class="cls-3" d="M438.38,185.6a8.69,8.69,0,0,0,3,1.12,7.59,7.59,0,0,0,2.47-.26,5.7,5.7,0,0,1,1.9-.21,6.4,6.4,0,0,1,1.23.35,6,6,0,0,0,1.9.43,2.36,2.36,0,0,0,1.77-.77.72.72,0,0,0,.12-.8c-.69-1.34-2.1-1.85-3.35-2.3-.4-.15-.78-.29-1.14-.45a1.83,1.83,0,0,0-.63-1.23.65.65,0,0,0-.6-.22,6.55,6.55,0,0,1-2.56-.36,8,8,0,0,0-2.32-.4h0a2.67,2.67,0,0,0-1.41.59,1.64,1.64,0,0,1-.63.34,4.91,4.91,0,0,1-.74.06h0a7.78,7.78,0,0,1-3.41-1,9.63,9.63,0,0,0-2.88-1,16.27,16.27,0,0,0-1.93-.15,4.4,4.4,0,0,0-1,.13,4.32,4.32,0,0,0,.68-3.05A7.65,7.65,0,0,1,429,174a1.84,1.84,0,0,1,.87-.85l.11-.07a3,3,0,0,0,3.14,2.4,3.15,3.15,0,0,0,2.42-1,3.14,3.14,0,0,0-2.42-5.28,3.2,3.2,0,0,0-2.44,1,2.26,2.26,0,0,1-.13.2c-.63-1.08-1.72-2.4-2.31-2.48H428a1.94,1.94,0,0,0-1.57,1.14c-.1.14-.26.38-.33.4s-.39-.46-.57-.87a4.46,4.46,0,0,0-.7-1.25,4,4,0,0,0-1.12-.77,3.73,3.73,0,0,1-.62-.36c.07-.11.18-.26.26-.37a2.22,2.22,0,0,0,.65-1.59,3.13,3.13,0,0,0-1.19-1.85,2.73,2.73,0,0,0,.65.2.69.69,0,0,0,.68-.26c1.2-1.55.4-3-.24-4.1a6.08,6.08,0,0,1-.67-1.43A11.6,11.6,0,0,1,423,155a9,9,0,0,0-.54-2.75c-.53-1.28-2.67-2.88-4.87-4.46a5.55,5.55,0,0,0-1.36-.62,3.11,3.11,0,0,1-1.08-.5,3.31,3.31,0,0,1-.46-1.74,6.7,6.7,0,0,0-.75-2.81,5.14,5.14,0,0,0-1.3-1.25c-.38-.27-.81-.6-.86-.83a5.5,5.5,0,0,1,.49-3.23,10.23,10.23,0,0,0,.6-2c.08-.49.12-.92.15-1.28a4.16,4.16,0,0,1,.15-1l.11-.06a3.54,3.54,0,0,1,.42.64,3.17,3.17,0,0,0,1.08,1.29,6.87,6.87,0,0,0,1.7.59,3.72,3.72,0,0,1,1.73.75,4.53,4.53,0,0,1,.71,1.11,5.85,5.85,0,0,0,1.37,1.9,8.29,8.29,0,0,0,2.05,1.09c.55.21,1.29.51,1.39.77a2.39,2.39,0,0,1,.05.59,1.93,1.93,0,0,0,1.15,2.08.92.92,0,0,0,.29,0c1.82-.17,2.74-1.5,3.48-2.58a4.88,4.88,0,0,1,1.17-1.35,11.3,11.3,0,0,1,2.07-.85c1.5-.51,3.2-1.08,3.94-2.7a.59.59,0,0,0,0-.23c.63-7.64-2.83-10.59-6.17-13.44l-1.14-1-.26-.23c-3-2.64-3.64-3.74-3.61-4.2.08-1.65,3.74-5.21,5.28-5.32a2.36,2.36,0,0,1,1.81.89,2.33,2.33,0,0,1,.58,1.83c0,.14-.46.5-.71.71a3.4,3.4,0,0,0-1.6,2.73c.11,1.82,2.45,2.59,3.69,2.45a4.31,4.31,0,0,0,3.28-4.23,2.94,2.94,0,0,0-1.15-1.8c-.32-.31-.68-.65-.66-.88.06-1,1.24-1.37,3-1.75a15.66,15.66,0,0,0,1.57-.39c.35-.12.71-.28,1.07-.44a12.5,12.5,0,0,1,1.2-.48c.71-.23,1.44-.44,2.17-.65a19.26,19.26,0,0,0,7.09-3.07c2.93-2.33,4.16-5.57,5.05-9.69,1.44-.88,1.41-2.54,1.38-4a14.76,14.76,0,0,1,.05-1.88.82.82,0,0,0,0-.31,2.39,2.39,0,0,0-1.59-1.31l-.75-.31a6.12,6.12,0,0,0-.12-.8c0-.14-.07-.3-.11-.6A.72.72,0,0,0,455,87a2.47,2.47,0,0,1,0-.84,3,3,0,0,0-.35-2,2.1,2.1,0,0,0-1.21-.66,3,3,0,0,1-1-.44c-.51-.54-1-1.13-1.52-1.7a15.82,15.82,0,0,0-2.15-2.25,10,10,0,0,0-1.2-.72c-.83-.45-1.38-.78-1.38-1.2,0-.88,1.08-1.67,2.12-2.42a6.06,6.06,0,0,0,2.19-2.21.71.71,0,0,0-.3-.87,6.36,6.36,0,0,1-.72-.51,4.8,4.8,0,0,0-3.36-1.25A2.76,2.76,0,0,0,444.41,71c-.23.25-.58.62-.76.62s-.36-.31-.63-.79a3.38,3.38,0,0,0-1.57-1.68,5.67,5.67,0,0,0-1.55-.34,3.66,3.66,0,0,1-.63-.09.59.59,0,0,1,0-.2,2.1,2.1,0,0,1,.5-.16A3.52,3.52,0,0,0,441,67.8a6.33,6.33,0,0,0,1.33-1.8c.56-1,1.26-2.17,2.05-2.17h0c.47.05.59.07.51,1.38-.07,1-.16,2.41,1.15,3.19a.65.65,0,0,0,.49.08,5.21,5.21,0,0,0,1.84-.78,4.39,4.39,0,0,1,1.51-.66,6.36,6.36,0,0,1,1.21-.12c.6,0,2,.11,2.45,1.16.09.23.16.45.24.67a3.5,3.5,0,0,0,1.7,2.38,5.39,5.39,0,0,0,2.39.52c.91,0,1.24.09,1.47.42a2.79,2.79,0,0,1-.15.56,1.92,1.92,0,0,0-.08,1.41,4.31,4.31,0,0,0,.79,1.06,2.46,2.46,0,0,1,.66,1,9.91,9.91,0,0,1,.17,1c.14,1.07.33,2.53,1.87,3a2.68,2.68,0,0,0,.73.1c2,0,6.09-2,6.23-3.77.07-.94-.66-2.41-2.19-4.37a23.77,23.77,0,0,0-4.6-4.25,5.67,5.67,0,0,0-1-.5c-.86-.35-1.13-.52-1.15-.93s.2-.55.77-1a3.3,3.3,0,0,0,1.41-1.82,4.27,4.27,0,0,0,.06-1.8c0-.21-.06-.45-.09-.75a6.2,6.2,0,0,0,.69-1.39c.38-.94.56-1.27,1.2-1.3a2.4,2.4,0,0,1,.95.25,4.26,4.26,0,0,0,1.65.36c1.35-.06,3.71-1,4.39-2.59a3.86,3.86,0,0,0,.14-1.62,4.37,4.37,0,0,1,.07-1.43c.09-.29.21-.59.33-.88a7.21,7.21,0,0,0,.54-1.77,10,10,0,0,0,0-1.64c0-.31,0-.62,0-1,0-.65.07-1.3.13-1.9a12.71,12.71,0,0,0,.09-1.74,9.07,9.07,0,0,0-1.85-4.39l-.24-.3c-1.73-2.11-1.63-2.63-1.47-2.76a5.53,5.53,0,0,1,2.35,1.46A3.63,3.63,0,0,1,472.4,40a3.87,3.87,0,0,0,.65,1.48c.43.5.8,1,1.16,1.52a8,8,0,0,0,3.61,3.27.71.71,0,0,0,.35,0c-.36,1.75,1,3.16,2.63,3.75a1,1,0,0,0,.25,0,.76.76,0,0,0,.38-.11,2,2,0,0,0,1.13-1.72c-.08-1.16-1.48-1.83-2.71-2.42l-.61-.3c-.09,0-.18,0-.28,0a3.41,3.41,0,0,0,.25-1.15,4.42,4.42,0,0,1,.1-.69,1.74,1.74,0,0,1,.2-.42,2.11,2.11,0,0,0,.39-1.42c-.08-.73-.92-1.36-2.29-2.29-.35-.24-.67-.46-.84-.61-.63-.56-1.23-1.06-1.79-1.51s-.8-.66-1.14-1a21.69,21.69,0,0,1-2-2.1A8.48,8.48,0,0,0,468,31.27a.72.72,0,0,0-.41,0,2.17,2.17,0,0,0-1.26,1c-.11.17-.12.18-.45.19a7.81,7.81,0,0,1-2.69-1,6.83,6.83,0,0,1-.72-.43,4.48,4.48,0,0,0-2.59-.9h0a3.7,3.7,0,0,0-1.37.5,3.47,3.47,0,0,1-1.15.45c-.5,0-1.34-.68-2-1.22A5.54,5.54,0,0,0,453,28.49l-.25,0a2,2,0,0,0-1,.29c-.06,0-.16.08-.16.09-.27-.07-.45-.18-.49-.28-.13-.35.47-1.24.72-1.63a4.82,4.82,0,0,0,.36-.61,3.16,3.16,0,0,1,.56-.76,3.2,3.2,0,0,0,.58-.83,3.22,3.22,0,0,1,.34-.57,6,6,0,0,0,.73-1.37,2.51,2.51,0,0,0,0-1.31,2.15,2.15,0,0,1-.09-.54c.38-.95,1.21-1.36,2.78-1.36a25.42,25.42,0,0,1,3.25.32,19.12,19.12,0,0,0,5.47.23,3.11,3.11,0,0,0,1.35-.79,2.16,2.16,0,0,1,1.11-.62,5.44,5.44,0,0,1,2.26.63,8.89,8.89,0,0,0,2.85.83c.3,0,1,.06,1.69.06,1.62,0,3.15-.14,3.3-1.2a2.53,2.53,0,0,0-.68-1.83,2.32,2.32,0,0,1-.31-.48,1.85,1.85,0,0,1,1.26-2.4,6.34,6.34,0,0,1,1.45-.2,3.78,3.78,0,0,1,2.31.82,4.16,4.16,0,0,0,2.84.88A3.09,3.09,0,0,0,488,13.75a1.59,1.59,0,0,0,0-.66c.84.55,1.76,1.47,1.79,1.89a4.13,4.13,0,0,1-.63,1.16,6,6,0,0,0-1.21,2.77,3,3,0,0,0,.2,1.1,3.07,3.07,0,0,1,.11.35,2.57,2.57,0,0,1-.79,1,2.16,2.16,0,0,0-.94,1.6c.43,4.2,4,6.78,6.88,8.84.48.35.94.68,1.36,1,1.16.89,2.24,1.87,3.29,2.81a34.07,34.07,0,0,0,4.29,3.48.73.73,0,0,0,.7,0c.92-.46,2-1.21,2.15-2.17a2.34,2.34,0,0,0-.65-1.66,1.92,1.92,0,0,1-.43-.8,3,3,0,0,1,.07-.71,3.15,3.15,0,0,0,.1-1,2.18,2.18,0,0,0-.73-1.34c-.08-.08-.19-.2-.22-.12,0-.12.15-.19.51-.35A1.57,1.57,0,0,0,505,29.39a2,2,0,0,0-1-1.42c-.37-.27-.71-.53-.77-.86,0-.1,0-.14.06-.33a2.71,2.71,0,0,0,.2-1.36.57.57,0,0,0-.08-.28A2.76,2.76,0,0,0,502,24a4.16,4.16,0,0,1-.69-.4l-.36-.29a8.59,8.59,0,0,0-2.34-1.5l-.79-.26a3.78,3.78,0,0,1-1.16-.48,3.09,3.09,0,0,1-.8-1.84c-.08-.35-.17-.71-.28-1,.46-.61,1.19-.64,2.27-.64a8.12,8.12,0,0,0,1.48-.1c.25,0,.55-.07.85-.1a12.13,12.13,0,0,0,1.21-.16,7.14,7.14,0,0,1,2.58.14,6.24,6.24,0,0,0,2.12.13c.9-.18,1.63-1.1,2.33-2a10.27,10.27,0,0,1,.91-1,8.64,8.64,0,0,1,3.5-2.22,4.45,4.45,0,0,1,.74.12,3.64,3.64,0,0,0,2.78-.27.67.67,0,0,0,.26-.71c-.32-1.52-2.22-2.13-4.06-2.72-1.33-.42-3-1-3-1.67a2.11,2.11,0,0,1,1.13-1.52c2.18-.54,4.43.27,6.74,1.19a15.13,15.13,0,0,0,5.51,1.43,7.38,7.38,0,0,0,1.56-.17.67.67,0,0,0,.54-.61,4.29,4.29,0,0,0-1.13-3.44c-1.81-2-5.35-2.75-8.1-2.77a5.3,5.3,0,0,0-1.24.17,3.2,3.2,0,0,1-.71.12h0a7,7,0,0,1-2.33-.8,16.63,16.63,0,0,0-1.91-.78c-1.46-.45-3.1-.81-4.68-1.15-1.35-.3-2.62-.57-3.74-.9a5.81,5.81,0,0,1-.63-.21c-.27-.09-.53-.19-.79-.26l-1.54-.4a5.78,5.78,0,0,0-1.26-.14c-.22,0-.44,0-.65,0l-.64-.09a11.57,11.57,0,0,0-3.15-.19c-.55.07-1.12.16-1.68.25a10.09,10.09,0,0,1-3.35.2,8.38,8.38,0,0,1-2.18-1,6.21,6.21,0,0,0-2.72-1,3.76,3.76,0,0,0-1.15.25,2.38,2.38,0,0,1-1.93-.18c-.81-.36-1.85-.57-2.35-.13-.94.63-.38,1.59-.21,1.9h0A7.28,7.28,0,0,1,474.46-4a6.05,6.05,0,0,0-2.28-.66h0a5.32,5.32,0,0,0-1.59.29,3.82,3.82,0,0,1-.94.19A3.64,3.64,0,0,1,469-4.3a6.86,6.86,0,0,0-.81-.12c-1.22-.1-2.71-.06-4.23,0-.76,0-1.53,0-2.27,0a20.78,20.78,0,0,1-2.32-.1,3.23,3.23,0,0,1-1.81-1,6.18,6.18,0,0,0-1.89-1.3,17.84,17.84,0,0,0-6.62-1c-1.5,0-3,.1-3.93.18a11,11,0,0,0-1.61.27,6.82,6.82,0,0,1-2.35.22,3.63,3.63,0,0,1-.83-.31A6,6,0,0,0,439-8a7.63,7.63,0,0,0-2.38,0,5.52,5.52,0,0,1-1.43.07,3.93,3.93,0,0,1-1.33-1.2,4.06,4.06,0,0,0-2.2-1.65,6.53,6.53,0,0,0-2.39.23,7.33,7.33,0,0,1-1.67.25h0l-3.14-.12c-2.83-.12-5.79-.24-8.72-.09a.75.75,0,0,0-.38.13,4.14,4.14,0,0,0-.73.71,1.74,1.74,0,0,1-.69.55,13.6,13.6,0,0,1-4.79.5,20.33,20.33,0,0,0-4.46.34,6.12,6.12,0,0,0-.85.48,1.69,1.69,0,0,1-.83.36,2.37,2.37,0,0,1-.41,0,6.32,6.32,0,0,1-2.43-.45,4.08,4.08,0,0,1-.89-.88,8.07,8.07,0,0,0-1.09-1.1c-.35-.26-.73-.62-1.12-1a7.13,7.13,0,0,0-2.65-1.85,11.54,11.54,0,0,0-3.77.09,15.25,15.25,0,0,1-3.12.21,3.67,3.67,0,0,1-.6-.3,3,3,0,0,0-1.43-.53l-.2,0a4.09,4.09,0,0,0-1.86,1.05,3,3,0,0,1-1.74.91,11.6,11.6,0,0,1-1.38-.11l-.71-.07a5,5,0,0,1-.93-.22,6.86,6.86,0,0,0-.84-.21,3.3,3.3,0,0,1-.87-.32,4.74,4.74,0,0,0-1.3-.46,16.19,16.19,0,0,0-2.24-.12c-.5,0-1,0-1.5,0a12.87,12.87,0,0,0-3.07.32,3.51,3.51,0,0,1-1.55.2,3.38,3.38,0,0,1-1.57-1.22,5.16,5.16,0,0,0-1.42-1.28c-.42-1.83-1.66-2.2-2.84-2.56-.28-.08-.57-.17-.88-.29-.57-.2-1.15-.36-1.65-.5a21,21,0,0,0-4.74-.5,28.83,28.83,0,0,1-3.57-.25c-.44-.07-.9-.16-1.35-.26s-1-.19-1.45-.27a7.88,7.88,0,0,0-2.53.15c-.41.06-.86.13-1.32.18a9,9,0,0,1-1.72,0,8,8,0,0,0-2.37.05,3,3,0,0,0-1.33.84,2.59,2.59,0,0,1-.77.55,7.92,7.92,0,0,1-2.23.63,3.67,3.67,0,0,1-1.48-.67,4.86,4.86,0,0,0-2.41-.93h-.21a6.22,6.22,0,0,0-2.43,1,7.73,7.73,0,0,1-2.27,1c-.8.14-1.6.23-2.38.32-2,.23-3.92.45-5.25,1.38a.49.49,0,0,0-.13.12,1.35,1.35,0,0,0,0,1.7,13.22,13.22,0,0,1-2.51.07l-1.17,0a5.28,5.28,0,0,0-3.07.68.74.74,0,0,0-.2.23,2.1,2.1,0,0,0,.15,1.84l.05.11-.37-.29a2.11,2.11,0,0,0-1.43-.64h0A3.53,3.53,0,0,0,308-9.46c-.29.32-.71.82-.92.82s-.4-.27-.6-.49a2.33,2.33,0,0,0-1.7-.93h0c-.9.05-1.46.82-1.9,1.44-.18.24-.5.68-.67.73s-.37-.1-.75-.77a8.37,8.37,0,0,0-.58-.95,4.78,4.78,0,0,0-3.79-1.54,4.35,4.35,0,0,0-2.93.92,12.23,12.23,0,0,0-1.8,3.59,7.05,7.05,0,0,0,1.4,3.2,2.62,2.62,0,0,0,1.07.53c-.87-.13-1.76-.31-2.68-.5-1.09-.22-2.21-.44-3.37-.61-2.14-.31-4.25-.54-6.28-.69a.74.74,0,0,0-.6.26,1.25,1.25,0,0,0,.16,1.75,2.88,2.88,0,0,1-.54-.16,3.55,3.55,0,0,0-1.2-.27,4.44,4.44,0,0,0-1.84.52,4.84,4.84,0,0,1-1.37.47l-.47.07c-.43.07-.9.14-1.35.19a8,8,0,0,0-1.06.2,3.4,3.4,0,0,1-.87.13c-.26,0-.58-.39-.86-.71a2.28,2.28,0,0,0-1.61-1,2.74,2.74,0,0,0-1.54.74,3,3,0,0,1-.87.54c-.41.09-.79.21-1.15.31l-.53.16-.45.12a12.65,12.65,0,0,0-1.76.53,4.67,4.67,0,0,1-.82.2,4,4,0,0,0-1.13.32,4.69,4.69,0,0,0-1.4,1.17c-.43.48-.66.72-1.14.74s-.72-.48-.9-.85l.11-.13a1.6,1.6,0,0,0,.39-1.5.52.52,0,0,0-.06-.16c-.42-.85-1.7-.94-2.23-.94s-2,.08-2.51,1.06a2.38,2.38,0,0,0-.14,2.58,2.75,2.75,0,0,1,.26.86,4.55,4.55,0,0,0-1.26-.17,7.74,7.74,0,0,0-4.08,1.58l-.61.4a1,1,0,0,0-.35.51c-.17.71-.2.74-.41.8a5.43,5.43,0,0,1-2-.22,4,4,0,0,0-3.26.27.73.73,0,0,0-.27.45,1.34,1.34,0,0,0,.38,1.28,5.2,5.2,0,0,1-3.94-3.66,14.09,14.09,0,0,1,4,.26,19.11,19.11,0,0,0,2.72.3c1.6,0,3.71-.21,4.68-1.23a1.88,1.88,0,0,0,.54-1.42C251.11,0,248.82-.5,246.8-.93c-.59-.13-1.14-.25-1.54-.38A12,12,0,0,1,243-2.47,9.73,9.73,0,0,0,239.24-4a2.36,2.36,0,0,0-1.33.57,4.35,4.35,0,0,1-.51.31,6.88,6.88,0,0,1-2.26-.77A6.37,6.37,0,0,0,233-4.64a7,7,0,0,1-2-.5,2.41,2.41,0,0,1-1-.66,3.46,3.46,0,0,0-1.1-.78A7.06,7.06,0,0,0,225-6.66a11.68,11.68,0,0,1-2.24.26h0a11.75,11.75,0,0,1-1.58-.18,8.32,8.32,0,0,0-1.95-.16,10.85,10.85,0,0,1-1.23.06h-.51a9.47,9.47,0,0,0-1.14.18l-.35.07-.79.07a6.83,6.83,0,0,0-2,.34A29.72,29.72,0,0,1,209-4.67a9.27,9.27,0,0,0-2.21.88,7,7,0,0,1-1.86.73,4.7,4.7,0,0,1-.76.05,2.5,2.5,0,0,0-2.57,1.25,2.69,2.69,0,0,0-.08,1.23.67.67,0,0,1-.08.17,7.32,7.32,0,0,1-1.85,1.88,12.17,12.17,0,0,0-1.86,1.75c-.12.16-.25.3-.39.46a7.9,7.9,0,0,0-.65.78c-.47.64-.91,1.25-1.25,1.8l-.29.49a1.87,1.87,0,0,1-.81.89,4.28,4.28,0,0,1-1.95.31,6.42,6.42,0,0,0-2.05.27A3.14,3.14,0,0,0,189,9.34a2.86,2.86,0,0,1-.59.58,16.34,16.34,0,0,1-1.58.69c-1.4.54-3,1.15-3.83,2.61a.6.6,0,0,0-.09.22,5,5,0,0,0,.49,2.94,5.6,5.6,0,0,1,.35,1.05c0,.25.05.48.06.71a4.9,4.9,0,0,0,.24,1.48C184.58,21,186.21,23,188.3,23a7,7,0,0,0,3.81-1.58c.93-.64,1.77-1.23,2.55-1.1.19,0,.28.26.46.92a4.89,4.89,0,0,0,.43,1.19,4.88,4.88,0,0,0,1,1.12c.62.56,1.38,1.26,1.27,1.78-.07.32-.83.63-2.22.71-.09-1.35-.22-3-1.3-3.75a.72.72,0,0,0-.71-.06c-.56.26-1.06.45-1.51.61-1.26.47-2.34.87-2.85,2.32a4.86,4.86,0,0,0,.23,3.43,4.42,4.42,0,0,1,.34,2c0,.36-.37.72-2.31.72l-.86,0a13.26,13.26,0,0,0-2.15.08c-1.28.23-2.1,1.36-2.9,2.45-.24.34-.5.69-.77,1s-.48.63-.72,1a5.64,5.64,0,0,1-1.89,2,4,4,0,0,1-.47-.06,2.15,2.15,0,0,0-1.55.12,3.05,3.05,0,0,0-1,1.67,2.26,2.26,0,0,1-.56,1.09,14.46,14.46,0,0,1-3.51,1.2,2.72,2.72,0,0,1-.72-.46,2.29,2.29,0,0,0-1.31-.64,1.19,1.19,0,0,0-.32,0c-.76.24-1,1.06-1.15,1.73a2.64,2.64,0,0,1-.33.89,4,4,0,0,1-1.83-.12,7.35,7.35,0,0,0-1.45-.21A2.1,2.1,0,0,0,161.85,45a.69.69,0,0,0,.05.47,3.35,3.35,0,0,0,2.56,1.73,4.21,4.21,0,0,1,1.38.5,9.7,9.7,0,0,1,2.08,3.5,12.94,12.94,0,0,1-.26,3.94c-.46,1.2-1.17,1.4-2.61,1.4l-1,0-.66,0a9.63,9.63,0,0,1-1.08-.11l-.9-.11c-.89,0-1.77-.17-2.61-.27a26.92,26.92,0,0,0-3.31-.3,5.06,5.06,0,0,0-4.62,2.19.72.72,0,0,0-.11.42c0,.68.12,1.29.19,1.87a9,9,0,0,1,0,3.66,5.84,5.84,0,0,1-.84,1.62,4.35,4.35,0,0,0-1,2.53,2.79,2.79,0,0,0,.52,1.31,2.68,2.68,0,0,1,.44.88,5.17,5.17,0,0,1-.15.6,2.18,2.18,0,0,0-.12,1.65,2,2,0,0,0,2,1.06,8.42,8.42,0,0,0,1.29-.13,4.84,4.84,0,0,1,1.22-.09,2.51,2.51,0,0,1,1.66,2.32,7,7,0,0,1-.89,3.07,4,4,0,0,1-2.5,1.54,9,9,0,0,0-1.93.77,8.52,8.52,0,0,0-3,3.43l-.22.36a6.45,6.45,0,0,0-.91,5c-1.09,2-2.9,2.92-5.3,4a6.44,6.44,0,0,0-1.53,1.08c-.22.19-.45.38-.67.55a2.86,2.86,0,0,0-.85,1.27,4.62,4.62,0,0,1-.69,1.2,3.74,3.74,0,0,1-1.45.84,3,3,0,0,0-1.63,1.08,3.82,3.82,0,0,0-.38,1.65,3.84,3.84,0,0,1-.24,1.28,6.82,6.82,0,0,1-1.13,1.49,10.67,10.67,0,0,0-1.17,1.42c-.12.19-.27.41-.44.64a15.27,15.27,0,0,0-.95,1.42c-.24.43-.5.83-.75,1.21a5.06,5.06,0,0,0-1.23,3.28,3.64,3.64,0,0,0,.78,1.79,1.74,1.74,0,0,1,.44.93,1.26,1.26,0,0,1-.12.54,2.57,2.57,0,0,0-.23,1.15,4.35,4.35,0,0,0,.53,1.76,2.86,2.86,0,0,1,.3.84,5.8,5.8,0,0,1-.39,2.92c-.11.31-.21.61-.31,1-.18.63-.35,1.25-.53,1.76a4.56,4.56,0,0,1-.55,1,4.57,4.57,0,0,0-.91,2.33,3.9,3.9,0,0,0,.32,1.45,3.88,3.88,0,0,1,.33,1.31,5.2,5.2,0,0,1,0,1,4.62,4.62,0,0,0,0,1.53c.26,1.38,1.88,2.87,3.18,4.08.32.29.61.56.84.79.52.51,1.07,1,1.61,1.43a7.63,7.63,0,0,1,2.32,2.53c.16.4.29.83.42,1.27a6.66,6.66,0,0,0,1.54,3.12,7.33,7.33,0,0,0,1.76,1.15,10.15,10.15,0,0,1,1.44.86,6.83,6.83,0,0,0,1.75.92,6.14,6.14,0,0,1,1.53.8c.34.26.69.57,1.07.91,1.53,1.36,3.54,3.08,5.81,2.9a10.87,10.87,0,0,0,2.49-.59,16.22,16.22,0,0,1,1.9-.52c.4-.06.84-.16,1.29-.25a13.53,13.53,0,0,1,3.79-.46,6.82,6.82,0,0,1,1.44.4,6.36,6.36,0,0,0,2.33.5h0a7.4,7.4,0,0,0,3.08-1.16c.47-.26.95-.52,1.44-.74,4.08-1.78,7.49-2.44,10.3-2,1.33.19,1.86,1.3,2.46,2.58a6,6,0,0,0,2,2.79.76.76,0,0,0,.32.11,15.89,15.89,0,0,0,3-.1,9.16,9.16,0,0,1,2.93,0,4,4,0,0,1,2.46,2.66,12.43,12.43,0,0,1-.37,3.36c-.19.78-.33,1.63-.46,2.41a15.56,15.56,0,0,1-.37,1.95,2.28,2.28,0,0,1-.41.67,2.45,2.45,0,0,0-.68,1.56,9.79,9.79,0,0,0,1.79,4,6.38,6.38,0,0,0,2.12,1.52,6.71,6.71,0,0,1,1.83,1.25,13.62,13.62,0,0,1,2.35,4.87,31.23,31.23,0,0,0,1.21,3.22l.16.36a9.76,9.76,0,0,1,1.09,3.16,3.47,3.47,0,0,1-.17,1,4.31,4.31,0,0,0-.2,1.52,4.68,4.68,0,0,0,1.24,2.58,3.15,3.15,0,0,1,.84,1.54c.23,1.87-.66,3-1.69,4.28a8.48,8.48,0,0,0-2,3.48,4.12,4.12,0,0,0,0,1.35,2.8,2.8,0,0,1,0,.82,3.87,3.87,0,0,1-.52,1.09,4.55,4.55,0,0,0-.68,1.6,20.35,20.35,0,0,0-.22,3.86,11.58,11.58,0,0,0,1.88,4.55c.32.55.74,1.18,1.17,1.85.64,1,1.36,2.08,1.92,3.1a11.14,11.14,0,0,0,.72,1.15,6.15,6.15,0,0,1,.77,1.36,9.35,9.35,0,0,1,.18,2c0,.53,0,1.06.09,1.58a6.86,6.86,0,0,0,.52,1.71,4.84,4.84,0,0,1,.33,1,20.72,20.72,0,0,1,.23,2.36,10.59,10.59,0,0,0,1.14,4.94,6,6,0,0,0,1.39,1.44,5.56,5.56,0,0,1,1.39,1.39,8,8,0,0,1,.77,2.1,12,12,0,0,0,.85,2.42c.25.46.5.89.73,1.29a5.34,5.34,0,0,1,.84,1.87,4,4,0,0,1-.13.92,5.73,5.73,0,0,0-.19,1.37,5.21,5.21,0,0,0,4.6,4.74h0a2.83,2.83,0,0,0,1.61-.71,3,3,0,0,1,.78-.49,1.54,1.54,0,0,1,.37.2,2.08,2.08,0,0,0,1.25.38,4.18,4.18,0,0,0,1.46-.65,2.56,2.56,0,0,1,.65-.34,15.52,15.52,0,0,1,2.81-.05,18.43,18.43,0,0,0,2.23,0,17.2,17.2,0,0,0,8.08-2.77,39.72,39.72,0,0,0,5.71-5.16,13.84,13.84,0,0,0,1.6-2.2,13.28,13.28,0,0,1,1.33-1.85,5,5,0,0,1,1.24-.85,4.5,4.5,0,0,0,2-1.65,18.44,18.44,0,0,0,1.48-4.24,3.89,3.89,0,0,0-.12-1.19,1.64,1.64,0,0,1-.07-.8c.2-.92,1.26-1.35,2.48-1.86s2.75-1.12,3.33-2.5c1-2.36.56-5.25,0-7.26a5.88,5.88,0,0,0-.5-1.16,4.1,4.1,0,0,1-.51-1.35c.06-.57,1.29-1.37,2.27-2a21.22,21.22,0,0,0,1.83-1.29,7.26,7.26,0,0,0,1.32-1.65,3.49,3.49,0,0,1,3.43-2,6.48,6.48,0,0,0,2.55-.75,13.61,13.61,0,0,0,3.86-4.58,6,6,0,0,0,.22-3.42c0-.29-.08-.59-.11-.92a29.39,29.39,0,0,1,0-3.77c0-1.28.09-2.61,0-3.95a.65.65,0,0,0-.23-.48,10.27,10.27,0,0,1-2.28-4l-.24-.59a9.28,9.28,0,0,0-.5-4.13,3.65,3.65,0,0,0-.69-1.23,2.11,2.11,0,0,1-.46-.85,4.21,4.21,0,0,1,1.15-3,9.92,9.92,0,0,0,.91-1.46,20.17,20.17,0,0,1,1.93-3.17,4.61,4.61,0,0,1,1.33-1,6.58,6.58,0,0,0,1.7-1.26,3.14,3.14,0,0,0,.63-1.79,2.76,2.76,0,0,1,.31-1.13,29.47,29.47,0,0,1,6-5.67,5.05,5.05,0,0,1,1.58-.67,5.83,5.83,0,0,0,2-.93,14.88,14.88,0,0,0,1.82-1.91c.27-.32.54-.65.84-1a26.94,26.94,0,0,0,4.67-6.34,8.52,8.52,0,0,1,.46-.84,8,8,0,0,0,.59-1.12q.4-1,.84-2a41.44,41.44,0,0,0,1.83-4.68,2.23,2.23,0,0,1,.23-.41,3.2,3.2,0,0,0,.49-1l.15-.54c.38-1.28.85-2.86-.62-4.47a.66.66,0,0,0-.31-.21,3.1,3.1,0,0,0-2.46.56,4.08,4.08,0,0,1-1.57.64,9.42,9.42,0,0,1-2.32-.06,9,9,0,0,0-2.49,0c-.41.09-.78.2-1.14.31s-.7.2-1.06.27a2.71,2.71,0,0,0-.92.44,1.7,1.7,0,0,1-.54.29,11.13,11.13,0,0,1-2.51.11c-1-.09-1.54-.85-2.21-1.72-.19-.26-.38-.5-.58-.73a2.94,2.94,0,0,0,.1-1.06,6.47,6.47,0,0,0,4.06-.93,11.21,11.21,0,0,1,1.74-.73,1.33,1.33,0,0,1,.44-.05h.81a3.07,3.07,0,0,0,.78-.08,6.41,6.41,0,0,0,1.38-.58,5.48,5.48,0,0,1,1.17-.5,2,2,0,0,0,.94-.67,1.35,1.35,0,0,1,.23-.24l.81-.28a21.6,21.6,0,0,0,2.36-.89c.57-.26,1.15-.5,1.7-.74a19.52,19.52,0,0,0,3.17-1.53,4.08,4.08,0,0,0,1.42-1.84,2.31,2.31,0,0,1,.69-1,3.5,3.5,0,0,1,2-.4h.82a6.73,6.73,0,0,0,2.31-.33,3.19,3.19,0,0,0,1.5-1.49,3.61,3.61,0,0,1,.74-.93,3.24,3.24,0,0,1,1-.41,4.46,4.46,0,0,0,1.78-.89,9.38,9.38,0,0,0,1.8-2.52,2.12,2.12,0,0,0,.07-1.12,3.9,3.9,0,0,1,0-.73,2.67,2.67,0,0,1,.66-.59,4.93,4.93,0,0,0,1-.89s2.35-3.11,2.25-4.4c-.1-1.14-2.41-4.12-3.27-4.45a4,4,0,0,0-2-.08,3,3,0,0,1-.72,0,4.29,4.29,0,0,1-1.76-2.15,3.78,3.78,0,0,1-.24-.79,3.26,3.26,0,0,0-1.57-2.32.69.69,0,0,0-.84.06,20.06,20.06,0,0,0-1.48,1.44c-1.56,1.61-3,3.14-6,3.14a13.68,13.68,0,0,1-1.52-.1c-.38-.17-.48-1.14-.55-1.93a6.89,6.89,0,0,0-.36-1.89.66.66,0,0,0-.15-.22,2,2,0,0,0-1.81-.49l-.13,0a7.5,7.5,0,0,0-3.27-3.32A7.92,7.92,0,0,1,285,94.55a6.54,6.54,0,0,1-1.05-2.81c.1-.75,1.39-1.51,2.25-1.51,1.32,0,1.94,1.12,2.81,2.93a7.29,7.29,0,0,0,2.1,3,6.47,6.47,0,0,0,1.54.67,7,7,0,0,1,1.76.77,9.25,9.25,0,0,0,5.08,1.78,6.85,6.85,0,0,0,1.61-.18,5.69,5.69,0,0,0,1.29-.5,2.08,2.08,0,0,1,1.5-.35c.26.06.5.71.67,1.19a3.48,3.48,0,0,0,.74,1.36c1.21,1.13,3.93,1.77,5.47,1.93a10.18,10.18,0,0,0,2.38-.16,8.39,8.39,0,0,1,2-.15,18.22,18.22,0,0,0,4.31-.17l1.37-.15H321a10.72,10.72,0,0,1,2,.31,8.45,8.45,0,0,0,2.33.31,2.74,2.74,0,0,0,1-.34,2,2,0,0,1,.51-.22c.87.09,1.5,1,2.11,1.92a7.58,7.58,0,0,0,1.13,1.41,14.13,14.13,0,0,0,3.13,1.86,9.89,9.89,0,0,1,2.18,1.26,2.85,2.85,0,0,0,.38,2.39,5.84,5.84,0,0,0,4.13,2.57,4.38,4.38,0,0,0,2.34-.72,6,6,0,0,1,.92-.45c.24.17.24.35.14,1.09a7.72,7.72,0,0,0-.09,1.61,7.81,7.81,0,0,0,1,2.71,13.18,13.18,0,0,1,.85,1.87c.18.56.34,1.16.51,1.75.24.88.49,1.79.79,2.57a16,16,0,0,0,1.68,3.06c.31.48.62,1,.89,1.43a9.61,9.61,0,0,1,.94,2.86,12.14,12.14,0,0,0,.68,2.32,7.82,7.82,0,0,0,1.56,2.07,7.25,7.25,0,0,1,1,1.24,16.07,16.07,0,0,1,1,2.62c.87,2.71,1.88,5.81,4.52,5.44a3.57,3.57,0,0,0,2.24-1.52l.57-.61c.31-.33.64-.67.92-1a2,2,0,0,0,.27-1.27,2.1,2.1,0,0,1,.07-.71,1.48,1.48,0,0,1,.58-.34,1.59,1.59,0,0,0,1.09-1,3.46,3.46,0,0,0-.22-1.88,2.94,2.94,0,0,1-.19-.95,7.64,7.64,0,0,1,.32-1.34,7.73,7.73,0,0,0,.37-1.49,10.72,10.72,0,0,0-.26-3.4,13.89,13.89,0,0,1-.3-2.51,5,5,0,0,1,2.24-1.76,9.29,9.29,0,0,0,2.08-1.36,2.72,2.72,0,0,0,.69-1.4,2,2,0,0,1,.29-.73,2.85,2.85,0,0,1,1-.48,4.15,4.15,0,0,0,1.66-.87c.56-.57,1.07-1.17,1.55-1.75a11.43,11.43,0,0,1,2-2.07c.21-.14.42-.26.62-.37a3.7,3.7,0,0,0,2-2.33.82.82,0,0,0,0-.27,1.77,1.77,0,0,1,.22-1.34,2.84,2.84,0,0,1,1.87-.39l1.26,0c.34,0,.7,0,1.05,0a23.57,23.57,0,0,0,3.81-.76,3.92,3.92,0,0,0,1.29-.9c.25-.22.66-.59.7-.65a3.33,3.33,0,0,1,.28,1,6.13,6.13,0,0,0,.46,1.59,5.46,5.46,0,0,0,1.57,1.58,11.18,11.18,0,0,1,.87.74,7.31,7.31,0,0,0,1.4,1,4.59,4.59,0,0,1,1.13.82,1.51,1.51,0,0,1,.1.47,2.68,2.68,0,0,0,.43,1.34,7.37,7.37,0,0,0,1.26,1.24c.85.73,1.37,1.22,1.39,2.05a2.4,2.4,0,0,1-.47.86,2.51,2.51,0,0,0-.68,1.89,3.8,3.8,0,0,0,3.31,2.42c1.23,0,2.17-1.1,3-2.06.44-.5,1.09-1.25,1.39-1.25.57.07,1.39,2.69,1.66,3.56.13.38.23.74.34,1a6.92,6.92,0,0,1,.25,1.25,5.05,5.05,0,0,0,.36,1.56,10.44,10.44,0,0,0,.55,1,5,5,0,0,1,.64,1.27l.15.6a18.87,18.87,0,0,1,.54,2.43,1.64,1.64,0,0,1-.1.61,2.74,2.74,0,0,0-.13.84c0,1,0,2-.07,3s-.1,2.07,0,3a3.91,3.91,0,0,0,1.89,2.7c.26.2.51.4.74.61l.24.23c1,.94,2.7,2.51,3,3.5a5.29,5.29,0,0,1,0,1.95,5,5,0,0,0,.11,2.36,2.32,2.32,0,0,0,1.1,1,2.29,2.29,0,0,1,.61.44,10.64,10.64,0,0,0,4.15,4,8.35,8.35,0,0,1,1.06.86l.52.46c-.5-.26-1-.5-1.51-.71a12.45,12.45,0,0,1-1.59-.78c-.56-.36-1.06-.73-1.54-1.09s-1-.7-1.41-1l-.48-.29a12.53,12.53,0,0,1-1.79-1.18,6.51,6.51,0,0,1-.87-1,7.26,7.26,0,0,0-1.1-1.19c-.44-.36-.85-.77-1.26-1.17a7.52,7.52,0,0,0-2.59-1.94,20.51,20.51,0,0,0-2.42-.59,6,6,0,0,1-.92-.26,2.05,2.05,0,0,0-2.39.35.67.67,0,0,0-.17.5c.12,2.37,1.75,3.81,3.19,5.07a16,16,0,0,1,1.66,1.62,4.64,4.64,0,0,1,.41.66,5,5,0,0,0,.71,1,4.72,4.72,0,0,0,1.23.82,2.5,2.5,0,0,1,1,.73,5.76,5.76,0,0,1,.55,1.39,6.74,6.74,0,0,0,.65,1.65,6.28,6.28,0,0,0,1.72,1.69,5.28,5.28,0,0,1,1.24,1.12,12.9,12.9,0,0,1,1.06,2.1c.25.56.5,1.13.8,1.68.12.21.23.44.34.67a9.77,9.77,0,0,0,1.39,2.23l.54.59a37.88,37.88,0,0,0,6,5.74.73.73,0,0,0,.4.13h.29A11.61,11.61,0,0,0,427,180h0a1.51,1.51,0,0,0-.4,1.16c.12,2.1,6.17,3.29,6.23,3.3a14.08,14.08,0,0,0,1.73.14c.48,0,1,.05,1.46.11A7.62,7.62,0,0,1,438.38,185.6ZM359.53-12.15a2.19,2.19,0,0,1,.41-.29,7,7,0,0,1,1.53-.63A7.53,7.53,0,0,1,359.53-12.15Zm-54,8.53a3.9,3.9,0,0,0,2.3,1.47,3.08,3.08,0,0,1,.66.26A2.39,2.39,0,0,1,309,.76a2.47,2.47,0,0,1-2.36,1.66,1.93,1.93,0,0,1,.33-.86,3.14,3.14,0,0,0,.55-1.62c0-1.43-1-2.37-1.93-3.18s-1.71-1.52-1.72-2.63a.87.87,0,0,0,.06-.32c.43.14.7.62,1.11,1.49A9.16,9.16,0,0,0,305.57-3.62Zm-24.39,64.5-.23-.22a11.45,11.45,0,0,0-1.55-1.17,4.82,4.82,0,0,1-1.76-1.62,2.3,2.3,0,0,1,0-.53A2.88,2.88,0,0,0,277.5,56a4.27,4.27,0,0,0-1.26-1.51c-.26-.21-.57-.48-.59-.61a3.49,3.49,0,0,1,1.1-1.29,8.14,8.14,0,0,1,1-.62,20.11,20.11,0,0,0,1.77-1.08,6.65,6.65,0,0,1,4.27-1.64,11.18,11.18,0,0,1,2.32.28,1.93,1.93,0,0,1,.59,1.29,1,1,0,0,1-.07.46c-2.42,0-4,1.24-4.06,3.06-.06,2,2.8,3.63,4.68,4.71l.36.2,0,.4a2.65,2.65,0,0,0,.81,2.17.67.67,0,0,0,.64.08,3.15,3.15,0,0,1,3.09.56,1.33,1.33,0,0,1,.35.62,2.68,2.68,0,0,1-.89,0,3.52,3.52,0,0,0-1.6.13.84.84,0,0,0-.52.57v.06a.49.49,0,0,0,0,.24,7.39,7.39,0,0,0,1.9,3.41c1,1.22,1.91,2.27,1.65,4.56a6.25,6.25,0,0,1-3.68,1,4,4,0,0,1-2-1.07,8.72,8.72,0,0,0-1.7-1.11,8.88,8.88,0,0,0-1.33-.43c-1-.25-1.2-.37-1.31-.92a8.63,8.63,0,0,1,.35-2.84,3.83,3.83,0,0,1,.27-.63,2.55,2.55,0,0,0,.36-1.44C284,63.73,283,62.57,281.18,60.88ZM195.53,78.81a3.08,3.08,0,0,0,.91-1.6,1.77,1.77,0,0,0-.63-1.34,1.52,1.52,0,0,1-.47-.72,2.14,2.14,0,0,1,.3-.54,1.58,1.58,0,0,0,.42-1.32A4.09,4.09,0,0,0,192.71,71a4.25,4.25,0,0,0-1.77.52,3,3,0,0,1-1,.34,13.69,13.69,0,0,1-1.68-.19,12.53,12.53,0,0,0-2.82-.23,7.51,7.51,0,0,0-1.47.32,4.72,4.72,0,0,1-1.09.25,32.64,32.64,0,0,1-3.52.06c-.86,0-1.69,0-2.48,0a17.58,17.58,0,0,0-5.07,1.39c-.38.17-.75.37-1.16.58l-.89.47a3.74,3.74,0,0,1-.46.14,6.26,6.26,0,0,0-.84.27,11,11,0,0,0-1,.55,4.82,4.82,0,0,1-1.16.58l-.44.12a17.82,17.82,0,0,1-3.83.66h-.19c-.73,0-2.62-.25-2.63-1.4s1.59-1.37,3.86-1.56c.69-.06,1.38-.12,2-.23a5.38,5.38,0,0,0,2-.92l.63-.39s.28,0,.55,0a1.84,1.84,0,0,0,1.42-.23,7,7,0,0,0,2.15-3.4,2.47,2.47,0,0,0-.41-1.54,3.32,3.32,0,0,0-.21-.39,4,4,0,0,1,.83-.83c.25-.21.52-.44.75-.67a17.54,17.54,0,0,1,3.85-2.81,8.37,8.37,0,0,1,1-.4,3.67,3.67,0,0,0,2.08-1.35.68.68,0,0,0,.1-.27,3,3,0,0,0-.45-1.69,4.15,4.15,0,0,1-.23-.48,3.46,3.46,0,0,1,1.19-.54,4.35,4.35,0,0,1,2,.27,8.43,8.43,0,0,0,2.23.39h.2a3.4,3.4,0,0,0,1.9-.83l.45-.32a4.43,4.43,0,0,1,1.08-.44,6.93,6.93,0,0,0,1-.39,7.07,7.07,0,0,0,.82-.53,2.74,2.74,0,0,1,1.32-.63c1,0,1.48.86,2.18,2.16a9.07,9.07,0,0,0,.78,1.31A20.36,20.36,0,0,0,199,62.53a7,7,0,0,0,1.52.59c.35.12.71.22,1.05.37,2,.91,5.08,3,5.11,4.18a2,2,0,0,1-.39.83,2.5,2.5,0,0,0-.56,1.72.7.7,0,0,0,.58.58c1.71.28,4-1.68,4-3.39a2.25,2.25,0,0,0-.66-1.48,1.73,1.73,0,0,1-.34-.5,2.67,2.67,0,0,1,1.35.07,2.81,2.81,0,0,0,2.05-.09.69.69,0,0,0,.31-.65c-.15-1.45-1.69-1.92-2.92-2.3a6.65,6.65,0,0,1-1.47-.56,4.8,4.8,0,0,1-.72-.56,4.45,4.45,0,0,0-1.29-.9,10.12,10.12,0,0,1-2.43-1.5,7.85,7.85,0,0,1-1.31-1.48c-.24-.31-.48-.63-.73-.93a6.17,6.17,0,0,0-1.38-1.11c-1.17-.78-1.84-1.3-1.59-2.69a1.83,1.83,0,0,1,1.11-.36,1.11,1.11,0,0,1,.72.52,3.23,3.23,0,0,0,.77.74l.53.4c.34.24.68.49,1.08.75a3.29,3.29,0,0,1,.73.86,5.86,5.86,0,0,0,1.06,1.27,15.53,15.53,0,0,0,3.59,1.94l1.34.6c.36.18.78.35,1.21.52,1,.41,2.59,1,2.73,1.66a1.87,1.87,0,0,1-.18.81,2.68,2.68,0,0,0-.23,1.32,4,4,0,0,0,1.14,2c.13.15.26.29.35.42.4.55.82,1.08,1.25,1.63.65.84,1.32,1.71,2,2.69a4.26,4.26,0,0,0,1,3,3.93,3.93,0,0,0,3.43.92.73.73,0,0,0,.25-.08,2.33,2.33,0,0,0,1.16-1.28,2.62,2.62,0,0,1,.44-.69,3.17,3.17,0,0,1,.87-.51c.71-.33,1.69-.79,1.7-1.9s-1.06-1.78-2-2.31c-1.2-.69-1.78-1.11-1.67-1.88a1.45,1.45,0,0,1,.28,0,4.93,4.93,0,0,0,.66.07.51.51,0,0,0,.54-.24c1.12-1.29,3.27-2.48,4.3-1.33.76,4.48,1.83,7.71,4.71,9.91a.71.71,0,0,0,.66.1,2.11,2.11,0,0,1,1.95.46,3.64,3.64,0,0,0,2.69.74A2.68,2.68,0,0,0,241,74.25c.2-.27.47-.64.63-.67a3,3,0,0,1,2,.8,5.28,5.28,0,0,0,2.22,1,6.47,6.47,0,0,0,3.44-.79c1.13-.48,2.19-.9,3.13-.49a18.25,18.25,0,0,0,.37,2.2,8.56,8.56,0,0,1,.26,2.15,3.49,3.49,0,0,1-.7,1.46,8.2,8.2,0,0,0-1,2,11.36,11.36,0,0,0-.43,2.18c-.21,1.5-.37,2.37-1.32,2.7a3.55,3.55,0,0,1-1.23.22h0a7,7,0,0,1-2.4-.58,7.82,7.82,0,0,0-3.27-.66,5.92,5.92,0,0,0-2.2.7,6,6,0,0,1-1.63.59,8.7,8.7,0,0,1-3.69-.68,16.77,16.77,0,0,0-3.28-.83,1.94,1.94,0,0,1-.6-.35,2.65,2.65,0,0,0-.89-.48,6.8,6.8,0,0,0-.9-.17,6.91,6.91,0,0,1-1-.19l-.63-.21c-.67-.22-1.16-.38-1.8-.56-.91-1.23-2.8-1.68-4.35-1.68-2.35,0-4.9,1-5.29,3.36a8,8,0,0,0-.08,1.19c0,1.14,0,1.53-1.12,1.65a4.65,4.65,0,0,1-2.23-.59,12.52,12.52,0,0,0-2.34-.81c-.75-.17-1.72-.46-2.33-.67A2.46,2.46,0,0,1,207,85a6.13,6.13,0,0,0-1.28-1.27,10.9,10.9,0,0,0-4-1.93l-.34,0a6.4,6.4,0,0,0-.87.08,4,4,0,0,1-.93.06,7.44,7.44,0,0,1-2.64-.8l-.7-.39a5.42,5.42,0,0,1-1.37-.87C194.78,79.7,195.27,79.12,195.53,78.81Zm1.93-49.41a2.27,2.27,0,0,0,1.61-1.06c.17-.24.19-.25.24-.27a2.08,2.08,0,0,1,.39.22,2.69,2.69,0,0,0,1.49.57h.19a3.14,3.14,0,0,0,1.9-1.47,3.3,3.3,0,0,1,.83-.89,5,5,0,0,1,1.54-.36c.81-.1,1.81-.22,2.08-1.59a3.61,3.61,0,0,0-.21-1.64,3.06,3.06,0,0,1-.19-1.18c.12-.52.68-.79,1.61-1.19s2.5-1.09,2.38-2.79a3.06,3.06,0,0,0-1.64-2.13c-.48-.33-1-.67-1.05-1a3.62,3.62,0,0,1,.49-2,6.59,6.59,0,0,1,3-2.21,7.24,7.24,0,0,0,3-2.18,12.66,12.66,0,0,1,1.24-1.72,5.11,5.11,0,0,1,4.3-.79c-.23,1-1.49,1.7-2.81,2.42-1.49.83-3,1.68-3.12,3.2a5.07,5.07,0,0,1-.08.54,6,6,0,0,0-.13,1.9,5.78,5.78,0,0,0,.44,1.47c0,.11.09.22.13.32.54,1.62,2.49,2.45,4.16,2.56a14.22,14.22,0,0,0,4.11-.61c2.12-.51,4.36-.92,5.69-.17a2.9,2.9,0,0,1-2.13.56c-.45,0-.93,0-1.42-.05s-1.09-.06-1.65-.06a8,8,0,0,0-2.76.4l-.79.24c-.35.11-.7.21-1,.34a3.7,3.7,0,0,1-.5.16c-.85.24-2.27.65-2.27,2.16a.67.67,0,0,0,.07.31,1.61,1.61,0,0,0,.51.63,2.59,2.59,0,0,0-1,.77c-1,1.26-1.11,3.36-.9,5-.2.13-.42.29-.63.45a4.84,4.84,0,0,1-2.2,1.13,2.71,2.71,0,0,1-.82-.23,5.08,5.08,0,0,0-1.48-.4,8.73,8.73,0,0,0-4,.84,8.61,8.61,0,0,1-3,.75h0a3.11,3.11,0,0,1-1.06-.42,5.35,5.35,0,0,0-2.57-.8h0a3.14,3.14,0,0,0-1.51.49,2.56,2.56,0,0,1-.85.34l-.36,0a3,3,0,0,1-1.45-.29c0-.16,0-.23.55-.23h.49A6.45,6.45,0,0,0,197.46,29.4ZM219.38,22a2.7,2.7,0,0,1,.61-.22,1.71,1.71,0,0,1,1.14.48.57.57,0,0,1,.16.45c0,.22-.07.34-.07.38a4.21,4.21,0,0,1-1-.49,7.4,7.4,0,0,0-1-.52Zm-19.93,7.83ZM235.7,55.14c0-.1,0-.23-.07-.21a2,2,0,0,1,.46-.32,3.28,3.28,0,0,0,1-.87,9.65,9.65,0,0,0,.66-1.13c.51-1,1.05-2,1.84-2a2.78,2.78,0,0,1,1.59.4,4.55,4.55,0,0,0,1.46.48c.16.25.3.52.45.79.58,1.07,1.32,2.41,2.84,2.65a4.21,4.21,0,0,0,2.95-1.07,5.9,5.9,0,0,1,1.3-.75.71.71,0,0,0,.44-.84A1.65,1.65,0,0,0,249.14,51c-.09,0-.22,0-.25-.12a.52.52,0,0,1,.15-.46c.56-.64,2.32-1.14,4-1.14a6.48,6.48,0,0,1,.8,0c.24.71-.06,1-.52,1.54a2.37,2.37,0,0,0-.84,1.7c0,1.27,1.83,2,3.44,2.62a9.48,9.48,0,0,1,1.21.52A28.76,28.76,0,0,0,259.84,57c.75.35,1.45.68,2.07,1.05a3.43,3.43,0,0,1,1.56,3c-.12.65-.66,1.07-1.62,1.24a12,12,0,0,1-3-.09c-.6-.06-1.16-.11-1.6-.12A14.21,14.21,0,0,1,252.71,61a16.14,16.14,0,0,0-5.78-1.3h-.63a7.58,7.58,0,0,1-.84-.05,4.7,4.7,0,0,0-1.9.12,6.24,6.24,0,0,0-1.59.94,3.45,3.45,0,0,1-1.2.68,8.29,8.29,0,0,1-1.93,0,6.37,6.37,0,0,0-2.32.06,2,2,0,0,0-.9.68.9.9,0,0,0,0-.18,2.75,2.75,0,0,0-1.06-1.68c-.36-.34-.7-.66-.74-1s.2-.67.67-1.18a4.7,4.7,0,0,0,1.19-1.85A2.39,2.39,0,0,0,235.7,55.14Zm37.47,76.59a11.25,11.25,0,0,1-1.35-1.62,10.19,10.19,0,0,0-2.26-2.47,14.74,14.74,0,0,0-1.85-1.06,5.74,5.74,0,0,1-2.72-2.11,7.14,7.14,0,0,1-.42-1.63,7.46,7.46,0,0,0-.87-2.68,9.28,9.28,0,0,0-1.77-1.88,5.06,5.06,0,0,1-1.66-2,13.19,13.19,0,0,1-.43-2.33c-.07-.6-.15-1.21-.3-1.94a6.25,6.25,0,0,0-2.32-3.33,5.81,5.81,0,0,1-1.69-2,4.49,4.49,0,0,1-.21-.84,5.74,5.74,0,0,0-.24-1,15,15,0,0,0-1.81-3.15c-.29-.43-.58-.84-.83-1.25A15,15,0,0,1,251,96.8l-.14-.47H252c.42.34.85.67,1.3,1a14.87,14.87,0,0,1,4.3,4.36,2.32,2.32,0,0,1,0,.76,2.51,2.51,0,0,0,.25,1.65,5,5,0,0,0,1.52,1.36,4.42,4.42,0,0,1,.73.57c.2.23.44.47.69.71a4.6,4.6,0,0,1,1.25,1.63,4.17,4.17,0,0,1,.1.8,7.82,7.82,0,0,0,.14,1.18,9,9,0,0,0,3.06,4.62,15.92,15.92,0,0,1,1.94,2.16c.24.35.45.71.65,1.06s.39.67.59,1a8.74,8.74,0,0,0,1.3,1.41,5.17,5.17,0,0,1,1.27,1.51l-.19.08a1.49,1.49,0,0,0-1.15,1.47.79.79,0,0,0,0,.2,4.41,4.41,0,0,0,1.22,1.61,3.82,3.82,0,0,1,.84,1,13.41,13.41,0,0,1,1.18,3.67c.15.64.29,1.28.47,1.9A2.32,2.32,0,0,1,273.17,131.73Z" transform="translate(120.13 19.32)"/><path class="cls-3" d="M460.55,151.83a.69.69,0,0,0-.07-.59,4.17,4.17,0,0,0-1.64-1.36,4.7,4.7,0,0,1-1-.64c-.28-1.17-1.59-3.05-3-3.05a1.72,1.72,0,0,0-1.32.64c-.52.61-.93,1.18-1.32,1.73a9.71,9.71,0,0,1-2.22,2.49,5.35,5.35,0,0,1-1,.57,11.49,11.49,0,0,0-1.13.63,5.11,5.11,0,0,0-1.34,1.68,4.6,4.6,0,0,1-.54.85,6.15,6.15,0,0,0-.66,1.07c-.27.49-.57,1.05-.89,1.16a3.69,3.69,0,0,1-1,.14,2.87,2.87,0,0,0-1.6.34,4.6,4.6,0,0,0-1.16,1.11,1.8,1.8,0,0,1-1.06.82,8.14,8.14,0,0,1-1.12.16c-.38,0-.8.08-1.23.15a2.79,2.79,0,0,0-2,1.56,6.88,6.88,0,0,0,0,5.54,3.89,3.89,0,0,0,1.92,1.67c.34.19.81.43.86.6a3.86,3.86,0,0,1,.08,1,2.7,2.7,0,0,0,.95,2.51,9.87,9.87,0,0,0,2.4,1,4.62,4.62,0,0,0,1.23.16l.72,0h.19c.3,0,.61.06.92.11a11.44,11.44,0,0,0,1.38.13,5.57,5.57,0,0,1,2.37.69,5,5,0,0,0,1.74.59h.21a3.41,3.41,0,0,0,1.74-.61,1.85,1.85,0,0,1,.81-.36h0a.73.73,0,0,0,.51-.18,4.6,4.6,0,0,0,1.29-3.13,7.29,7.29,0,0,1,.32-1.57,2.71,2.71,0,0,1,1.14-1.19,4,4,0,0,0,1.41-1.41.68.68,0,0,0,.08-.24,4.67,4.67,0,0,0-.08-1.63,1,1,0,0,1,.06-.76c.09-.21.79-.44,1.21-.58.83-.27,1.86-.6,1.94-1.58.05-.57-.38-1.12-.92-1.8a6.93,6.93,0,0,1-.69-1,5,5,0,0,0-1-1.2,4.23,4.23,0,0,1-.55-.61,3.25,3.25,0,0,1,1.32-3.22A5.91,5.91,0,0,0,460.55,151.83Zm-10.34,22.7h0v0Z" transform="translate(120.13 19.32)"/><path class="cls-3" d="M365.09,139.62a.64.64,0,0,0-.47,0c-.4.16-.63.58-.91,1.29-.63,1.86-1.28,6.47.09,8.72a2.48,2.48,0,0,0,1.74,1.25,3.25,3.25,0,0,0,.44,0,4.54,4.54,0,0,0,3.61-2.13c.45-1.05.29-2.44-.47-4.14C368.13,142.45,366.14,140,365.09,139.62Z" transform="translate(120.13 19.32)"/><path class="cls-3" d="M289.17,195.29a2,2,0,0,0-.83.19.59.59,0,0,0-.17.1,2.44,2.44,0,0,0-.79,1.44,1.54,1.54,0,0,1-.15.45,1.64,1.64,0,0,1-.65.29,2.31,2.31,0,0,0-1.14.63,3.85,3.85,0,0,0-.66,1.31,4.44,4.44,0,0,1-.55,1.14,6.84,6.84,0,0,1-2.4,1.53l-.79.38a7.5,7.5,0,0,1-1.6.54,7.68,7.68,0,0,0-2.65,1.09,7.3,7.3,0,0,0-2.21,4.1,5.73,5.73,0,0,0,.79,3,5.06,5.06,0,0,1,.68,2.16,4.52,4.52,0,0,1-1.5,2.43,6.79,6.79,0,0,0-2.16,3.8,3.59,3.59,0,0,0,.74,2.29,3.1,3.1,0,0,1,.5,1.05,2.25,2.25,0,0,1-.13.92,3.07,3.07,0,0,0-.09,1.63c.52,1.77,2.12,3.65,4,3.68h0a15.28,15.28,0,0,0,4.07-1.52c1.43-.78,1.88-2.76,2.31-4.68a16.81,16.81,0,0,1,.75-2.63,2,2,0,0,1,.46-.51A3.32,3.32,0,0,0,286,219c.41-1,.9-2.1,1.4-3.24.4-.9.8-1.81,1.19-2.73a23.08,23.08,0,0,0,2.25-8.11c.1-.16.19-.29.29-.43a3.76,3.76,0,0,0,.8-1.75,8.4,8.4,0,0,0,0-2.05C291.54,198.29,291.17,195.29,289.17,195.29Z" transform="translate(120.13 19.32)"/><path class="cls-3" d="M153.52,37.88a10,10,0,0,0,3.31-.79c.32-.12.63-.23.9-.31s.45-.1.71-.15a3.08,3.08,0,0,0,2.19-1,2.53,2.53,0,0,0,0-2.12,2.9,2.9,0,0,1-.18-1.32,1.69,1.69,0,0,1,.75-.72,1.86,1.86,0,0,0,1.1-1.72,2.39,2.39,0,0,0,.76.68,2.07,2.07,0,0,0,1.64-.12c.16-.06.41-.16.36-.2a2.31,2.31,0,0,1,.95,1.75c0,.23-.14.3-.69.52a3.34,3.34,0,0,0-1.35.82.72.72,0,0,0-.19.54c.05.56-.16.77-.64,1.18a3,3,0,0,0-1,1.24.64.64,0,0,0,0,.47,1.83,1.83,0,0,0,1.06,1l.2.1L163,38c-.49.26-1.49.81-1.1,1.87a.7.7,0,0,0,.23.31,2.31,2.31,0,0,0,1.42.51,4.48,4.48,0,0,0,2.1-.73,4,4,0,0,1,1.22-.52,15.42,15.42,0,0,1,3.33.06c.7.06,1.38.12,2,.12a4.89,4.89,0,0,0,3.06-.86.73.73,0,0,0,.26-.68,1.63,1.63,0,0,1,.36-1.25,2.94,2.94,0,0,0,.54-1.93,2.37,2.37,0,0,0-1.53-1.74,4.17,4.17,0,0,1-.71-.46,2.64,2.64,0,0,1-.13-.51,3.7,3.7,0,0,0-.48-1.44,7.56,7.56,0,0,0-1.22-1.31,8.6,8.6,0,0,1-.9-.93,14.62,14.62,0,0,0-1.1-1.23,5.81,5.81,0,0,1-1.2-1.45,2.62,2.62,0,0,1,.2-.92,7.32,7.32,0,0,0,.37-1.39,1,1,0,0,0,0-.25,1.65,1.65,0,0,0-1.33-1.32l-.33-.09a5.37,5.37,0,0,0,0-1.09c0-.17,0-.36,0-.65a.77.77,0,0,0-.08-.34.76.76,0,0,0-.11-.22.78.78,0,0,0-.59-.28l-.23,0a.69.69,0,0,0-.46.27c0,.05-.12.14-.47.14-.2,0-.42,0-.64,0a4.32,4.32,0,0,0-1.88.09c-1.44.5-2.79,3.51-2.8,3.55a3.3,3.3,0,0,0-.11,1.95,6.24,6.24,0,0,1,.09,1.42.64.64,0,0,0,.38.67,3,3,0,0,1,.31.77q.08.26.18.54a5.61,5.61,0,0,0-5.87-.8,4.49,4.49,0,0,0-1.3,1.32,1.83,1.83,0,0,1-.6.65c-.22.08-.42.14-.6.19a1.78,1.78,0,0,0-1.55,1.63,2.92,2.92,0,0,0,.09,1.35,3.26,3.26,0,0,1,.09.53,3.83,3.83,0,0,1-.43.67,3.67,3.67,0,0,0-.81,1.74.76.76,0,0,0,.09.49A3,3,0,0,0,153.52,37.88Z" transform="translate(120.13 19.32)"/><path class="cls-3" d="M107,176.65a4.7,4.7,0,0,0-1.67-.2,5.23,5.23,0,0,1-1.6-.16,11.79,11.79,0,0,1-3.45-2.38c-1.49-1.31-3-2.66-5.26-2.83a3.26,3.26,0,0,0-1.21.3,2.26,2.26,0,0,1-.83.23,8,8,0,0,1-2.18-.63,10.45,10.45,0,0,0-2.45-.73,5.77,5.77,0,0,0-1.53.09,8.51,8.51,0,0,1-1,.06,3,3,0,0,1-.36-1.07,2.71,2.71,0,0,0-.84-1.8,3,3,0,0,0-1.7-.32,4,4,0,0,1-1.15-.11,10.89,10.89,0,0,1-1.19-.57,7.18,7.18,0,0,0-2.93-1,2.06,2.06,0,0,0-1.13.48l-.42.28c-.26,0-.64-.47-1-.82a5.37,5.37,0,0,0-1.08-1l-.68-.39a4.9,4.9,0,0,1-1.41-1,3.94,3.94,0,0,0-1.47-4.06,3.91,3.91,0,0,1-1-1.23,3,3,0,0,1,0-1.05,3.77,3.77,0,0,0-.1-1.46,6.29,6.29,0,0,0-2.26-3,13.6,13.6,0,0,0-7-3,6.15,6.15,0,0,0-2.1.25,6.55,6.55,0,0,1-1.63.28h-.21c-1.17-.08-2.68-1.81-3.68-3l-.22-.26c-.33-.37-.62-.74-.9-1.08a9.22,9.22,0,0,0-2.08-2.1,4.76,4.76,0,0,0-1.81-.57,4.11,4.11,0,0,1-1-.22,1.07,1.07,0,0,1,0-.23,2.92,2.92,0,0,0-.27-1.08c-.13-.26-.27-.5-.4-.71-.4-.63-.5-.83-.24-1.34a.7.7,0,0,0-.31-.94,1.45,1.45,0,0,0-.69-.18,2.18,2.18,0,0,0-1.49.82,1.89,1.89,0,0,1-.5.42c-.9-1.24-1.77-2.16-4.43-1.67a3.62,3.62,0,0,0-1.6.85,2.4,2.4,0,0,1-1.33.64,2.75,2.75,0,0,1-1.17-.45,6,6,0,0,0-2-.74l-1-.13c-.69-.09-1.35-.18-1.84-.28a3,3,0,0,1-1.45-.81c-.27-.22-.57-.46-.94-.71l-.43-.28c-1.4-1-2.07-1.34-2.6-1.34h0a3.12,3.12,0,0,0-2,1.23c-.55.56-1.07,1.11-1.65.91a2.23,2.23,0,0,1,.3-.42,1.6,1.6,0,0,0,.09-2.34,1.79,1.79,0,0,0-1.29-.57,3.39,3.39,0,0,0-1.82.77l-.14.11c-.24.16-.45.32-.66.49a5,5,0,0,1-1.33.82,13.57,13.57,0,0,1-2,.57,9.08,9.08,0,0,0-2.4.79,3.71,3.71,0,0,0-1.78,2.42,6.94,6.94,0,0,1-.51,1.21,5,5,0,0,1-2.54,2.21c-.37,0-.9-.48-1.36-.9a5.57,5.57,0,0,0-1.41-1,4.78,4.78,0,0,0-1.92-.41,6.61,6.61,0,0,0-3.13,1,5.49,5.49,0,0,1-2.44.82,5.15,5.15,0,0,1-3.11-1.84,6,6,0,0,1-1.86-3.53,10.19,10.19,0,0,1,.56-2.21,14.67,14.67,0,0,0,.69-2.82,7.55,7.55,0,0,1,.34-1.49,6.37,6.37,0,0,0,.38-1.95c0-2.14-2.55-3.33-3.73-3.55a16,16,0,0,0-3.57,0c-.67,0-1.36.09-2.05.09a8.3,8.3,0,0,1-2.72-.38c0-.13.08-.3.32-.67a4.13,4.13,0,0,0,.48-.94,4.76,4.76,0,0,0,.2-.9,3.54,3.54,0,0,1,.17-.79,2.9,2.9,0,0,1,.74-.87,4.29,4.29,0,0,0,1.12-1.39,15.87,15.87,0,0,0,.56-1.58c.11-.32.21-.65.32-1s.29-.69.43-1a5.06,5.06,0,0,0,.53-1.56,4.37,4.37,0,0,0-1.35-3.47.67.67,0,0,0-.48-.16,14.44,14.44,0,0,0-5.34,1,6.28,6.28,0,0,0-2.95,3.31c-.58,1.14-1.08,2.12-2.28,2.5a11.68,11.68,0,0,0-1.4.61,7.34,7.34,0,0,1-1.79.7,12.93,12.93,0,0,1-2.21.15h-.79a6.41,6.41,0,0,1-3.28-1.54,26.17,26.17,0,0,1-2.36-4.14c-1.12-3.86.21-7.53,1.53-9.92a2.11,2.11,0,0,1,.55-.48,2.73,2.73,0,0,0,1-1.13,5.46,5.46,0,0,0,.19-2.07,5.06,5.06,0,0,1,.06-1.44c.41-1.47,2.35-2.47,3.91-3.28l.3-.15c.49-.26,1-.53,1.42-.8a9.63,9.63,0,0,1,4.2-1.64,15.92,15.92,0,0,1,3.67.18,3.69,3.69,0,0,1,1.11.55,3.61,3.61,0,0,0,1.64.71A5,5,0,0,0-15,91.59a9.68,9.68,0,0,1,1.45-1.1,7.13,7.13,0,0,0,2.92-.5,4.78,4.78,0,0,1,2.18-.41A3.34,3.34,0,0,1-7,90.36a3.6,3.6,0,0,0,1.92.88,3.06,3.06,0,0,0,1.48-.52,2,2,0,0,1,.77-.32,5.45,5.45,0,0,1,1.63,2.69,3.37,3.37,0,0,1-.2,1.28,4.15,4.15,0,0,0-.17,2.33.83.83,0,0,0,.18.32,14.58,14.58,0,0,0,4.86,2.71l.63.25a.7.7,0,0,0,.71-.1c1.18-1,.64-2.56.21-3.83a6.66,6.66,0,0,1-.38-1.34,1.51,1.51,0,0,1,.19-.57,2.36,2.36,0,0,0,.29-1.23,4.26,4.26,0,0,0-.61-1.62,2.71,2.71,0,0,1-.39-1c0-3.23,2.6-5.23,5.43-6.89l.74-.44c.85-.51,1.7-1,2.43-1.37a6.46,6.46,0,0,1,1.76-.53,6.26,6.26,0,0,0,2-.62,37.8,37.8,0,0,0,5.47-3.63.9.9,0,0,0,.21-.27,8.75,8.75,0,0,0,.25-4.23c-.05-.44-.09-.89-.12-1.28l.14,0a2.38,2.38,0,0,0,1.06.29l.24,0c1.13-.24,1.57-1.27,1.93-2.1a3.27,3.27,0,0,1,.48-.91,3.41,3.41,0,0,1,.82-.42,5.48,5.48,0,0,0,1.1-.6,6.32,6.32,0,0,0,1.45-1.78,3,3,0,0,1,.89-1.11,3,3,0,0,1,.52.1,3.3,3.3,0,0,0,1.49.09,6.43,6.43,0,0,0,1.51-.73A10.87,10.87,0,0,1,35.64,63a8.75,8.75,0,0,1,1.46-.27c1.16-.16,1.77-.27,2.11-.6a2.44,2.44,0,0,0,.32-2,3.77,3.77,0,0,1,0-.78c.42-1.93,2.85-2.63,5.21-3.32.73-.21,1.45-.42,2.07-.65a15.85,15.85,0,0,0,1.9-.93c.43-.23.87-.47,1.31-.67a1.85,1.85,0,0,0-.76,1.94,1.75,1.75,0,0,0,1.83,1.56,8.44,8.44,0,0,0,3.63-1.41c.28-.16.5-.29.63-.35.89-.36,2.09-.73,3.37-1.12,1-.32,2.1-.65,3.07-1l.32-.11c1.53-.56,3.45-1.24,3.84-2.65a2.34,2.34,0,0,0-.62-2.14.73.73,0,0,0-.51-.26h-.19a4,4,0,0,0-2.46,1,5.77,5.77,0,0,1-1,.65,2.25,2.25,0,0,1-.45,0,3.76,3.76,0,0,0-.67-.12h-.24a3.39,3.39,0,0,0-.86.13,1.6,1.6,0,0,1-.68.06,2.46,2.46,0,0,1-1.43-1.48c-.14-1,.46-1.67,1.46-2.64a7.65,7.65,0,0,0,1.49-1.76.68.68,0,0,0,.06-.54A2.45,2.45,0,0,0,57.15,42l-.8,0A9.21,9.21,0,0,1,55,42a2.5,2.5,0,0,1,1.83-1.46,7.15,7.15,0,0,1,3.65,1.18.76.76,0,0,1,.09.26,2.41,2.41,0,0,0,.72,1.28,2.72,2.72,0,0,0,1.93.65,7.19,7.19,0,0,0,1.31-.14.72.72,0,0,0,.58-.54c.28-1.38-.93-2-1.58-2.28l-.11-.05a10.32,10.32,0,0,1,3.39-.23,16.77,16.77,0,0,0,2.76-.08,12.25,12.25,0,0,0,4-1.55l.22-.12c.8-.46,2.12-1.17,2.81-.92a4,4,0,0,1-1,.7,5.94,5.94,0,0,0-.87.56,44.65,44.65,0,0,0-5.78,6.26.72.72,0,0,0,.07.93,3.78,3.78,0,0,0,2.76.81h1.16c.32,0,.65,0,1,0a6.05,6.05,0,0,1,1,.27,8.78,8.78,0,0,0,1.1.31,4.18,4.18,0,0,0,1.53-.08,3.08,3.08,0,0,1,.8-.08,2,2,0,0,1,.87.54,2.61,2.61,0,0,0,1.79.79A2.23,2.23,0,0,0,83,47.84a2.58,2.58,0,0,0-.38-2.52l0-.12a3.39,3.39,0,0,0,0-2.77,2.71,2.71,0,0,0-2.51-1.29C79.12,41,79,41,79,40.49s.07-.57.4-.87a3.18,3.18,0,0,0,.84-1,.78.78,0,0,0,.06-.37A2.64,2.64,0,0,1,81.21,36a3.56,3.56,0,0,0,1.16-2.95A1.78,1.78,0,0,0,81,31.64a1.76,1.76,0,0,1-.82-.52,2.19,2.19,0,0,1-.18-.63,2.35,2.35,0,0,0-.63-1.38,7.05,7.05,0,0,0-1.93-1c-1.2-.48-1.9-.81-2-1.78a11.31,11.31,0,0,1,.05-1.55,11.34,11.34,0,0,0,0-2.4c0-.06-.88-5.79-2.88-6.22-1.18-.25-2.21.84-3.21,2A7.2,7.2,0,0,1,67.51,20a5.65,5.65,0,0,1-3.07,0,1.59,1.59,0,0,1-1.19-1.38,3.4,3.4,0,0,1,.14-1.48,10.6,10.6,0,0,0,.3-1.27.7.7,0,0,0,0-.29,1.41,1.41,0,0,0-1.37-1.11,1.39,1.39,0,0,1-.72-.25,4.6,4.6,0,0,1-.86-1.05,3.57,3.57,0,0,0-2.29-1.9,6.64,6.64,0,0,0-1.65.07,5.47,5.47,0,0,1-.65.08,9.61,9.61,0,0,1-2.43-.21,7.73,7.73,0,0,0-2.81-.12,4.46,4.46,0,0,0-2.43,1.82,3.43,3.43,0,0,1-1.57,1.32.72.72,0,0,0-.48.8c.09.46-.37,1-.81,1.56a4,4,0,0,0-1,1.63A2.93,2.93,0,0,0,45,20a2.84,2.84,0,0,1,.23.68,7.44,7.44,0,0,1-1.88,5.78c-1.75,1.86-4.58,2.88-8,2.88h-.46a.75.75,0,0,0-.5.2,4.62,4.62,0,0,0-1.1,3.26A6.58,6.58,0,0,1,33,34.67a4.65,4.65,0,0,1-3.54,2.13h0c-.59,0-1.35-1.12-1.35-1.73a1.67,1.67,0,0,1,.33-.8A2.17,2.17,0,0,0,28.7,32c.14-.13.37-.3.52-.42.67-.51,1.67-1.27,1.46-2.53-.25-1.48-1.77-1.48-2.27-1.48-.3,0-.63,0-1,0a8.88,8.88,0,0,1-1.71,0A12.19,12.19,0,0,1,22.12,26l-.35-.2a12,12,0,0,1-1.47-1,7.87,7.87,0,0,0-3.81-1.94,6.2,6.2,0,0,0-1.3,0c-.43,0-.7,0-.76-.07s-.11-.29.09-.78a2.46,2.46,0,0,0,.2-.81,2,2,0,0,0-1.11-1.51c-.17-.12-.43-.34-.51-.32a8.82,8.82,0,0,1,1.86-2,25.32,25.32,0,0,1,4.3-3,20.25,20.25,0,0,1,3.85-1.43l1.43-.45a8.1,8.1,0,0,0,1.16-.53,7.86,7.86,0,0,1,.83-.4,13.24,13.24,0,0,0,2.26-1.14,9.18,9.18,0,0,1,2.14-1,3.12,3.12,0,0,1,1.12,0,5.92,5.92,0,0,0,1.59,0,7.32,7.32,0,0,0,2.27-1,2.73,2.73,0,0,0-.38.83.7.7,0,0,0,.07.51,2.44,2.44,0,0,0,2.2,1.45,6.58,6.58,0,0,0,3.14-1.25,5.26,5.26,0,0,1,2-.9,2.88,2.88,0,0,1,1.39.61,3.14,3.14,0,0,0,1.64.67c.69,0,1.26-.46,1.68-1.36a.7.7,0,0,0,0-.51A5,5,0,0,0,45.1,5.51l-.41-.26-.6-.38a2.12,2.12,0,0,0,1,.3,3.31,3.31,0,0,0,1.62-.65,3.81,3.81,0,0,1,.69-.38,15.59,15.59,0,0,1,1.51-.39,8.5,8.5,0,0,0,3.62-1.4,4.43,4.43,0,0,0,1-1.49A4.85,4.85,0,0,1,54,.06a3.76,3.76,0,0,1,.72-.72,5.83,5.83,0,0,0,1-1A2.52,2.52,0,0,0,56.07-3a3.09,3.09,0,0,0,0-.31A6.81,6.81,0,0,1,59-3.56a13.74,13.74,0,0,0,2.12,0c.33,0,.62-.08.9-.13a4.82,4.82,0,0,1,.93-.11h.22c.59,0,1.14.8,1.66,1.53A5.8,5.8,0,0,0,66.11-.76a4.48,4.48,0,0,0,1,.45c.61.22.74.3.77.5.1.72-.35,1-1.94,1.6a11.61,11.61,0,0,0-1.75.74,6.1,6.1,0,0,0-1.06.83,4.08,4.08,0,0,1-1.23.84,7.59,7.59,0,0,1-2.58.33l-1.68,0c-1.35,0-3.85,0-4.55,2.36a.75.75,0,0,0,.1.6,2.89,2.89,0,0,0,2.54,1.25A9.78,9.78,0,0,0,58,8.35a7.66,7.66,0,0,1,1.55-.27A3.83,3.83,0,0,1,62,9.6c.18.19.36.41.54.64a6.2,6.2,0,0,0,1.6,1.55,10.82,10.82,0,0,0,2.06.78l.71.22a10.67,10.67,0,0,0,5.46.62.66.66,0,0,0,.46-.34,1.77,1.77,0,0,0-.45-2.25,10.42,10.42,0,0,1,2.32.71.67.67,0,0,0,.68-.08,8.08,8.08,0,0,1,1.08-.66A2.29,2.29,0,0,0,78,8.24a2.68,2.68,0,0,0-1.24-2.06C76.25,5.72,76,5.46,76,4.9s.8-.8,1.23-.81.86.54,1.38,1.37,1,1.6,1.89,1.73l.2,0a9.68,9.68,0,0,0,3.46-1.39l.35-.18s3-1.54,3.15-2.81C87.81,1,84.11-.5,84-.57s-.56-.22-.82-.31c-1-.39-1.52-.59-1.85-1.29a2.07,2.07,0,0,1-.14-.57,2.26,2.26,0,0,0-.42-1.15,2.35,2.35,0,0,1,.14-.25,1.78,1.78,0,0,0,.3-1.51c-.3-1-1.09-1.34-2.09-1.79l-.29.64.07-.74a13.43,13.43,0,0,0-2.23-.87,3.69,3.69,0,0,0-1.58.06,3.19,3.19,0,0,1-.75.06c-1-.38-1.33-1.16-1.68-2.06a3.9,3.9,0,0,0-1.53-2.2.69.69,0,0,0-.44-.09,12.45,12.45,0,0,1-1.47.07h-1a6.56,6.56,0,0,0-2.71.44,7.93,7.93,0,0,0-4,0,12.35,12.35,0,0,1-2.78.27,2.79,2.79,0,0,1-.53-.49,2.34,2.34,0,0,0-1.42-.92,15.26,15.26,0,0,0-7.9,2.15,3.72,3.72,0,0,0,.43-.59.68.68,0,0,0,.07-.52,1.73,1.73,0,0,0-1.51-1.34,2.82,2.82,0,0,1-.43-.12A3.76,3.76,0,0,0,45.74-14h-.48a8.32,8.32,0,0,0-2.64.6l-.95.31a7.45,7.45,0,0,0-1.83.75,4.22,4.22,0,0,0-1.13,1.14,1.75,1.75,0,0,0,.11-1,.66.66,0,0,0-.06-.2,2.09,2.09,0,0,0-2-1,9.63,9.63,0,0,0-1.09.08l-.28,0c-2.58.26-4.55.71-5.74,2a8.06,8.06,0,0,0-1.12-.09,2.39,2.39,0,0,0-2,.76.7.7,0,0,0-.07.79c.2.34,1.94,3.3,3.84,3.63a2.4,2.4,0,0,0,1.48-.31,2.3,2.3,0,0,1,.39-.16,2,2,0,0,1-.37.3,2.27,2.27,0,0,0-1.1,1.79,2.19,2.19,0,0,0,1.07,1.67c.19.15.51.42.55.47a5,5,0,0,1-3,1.43h0a1.84,1.84,0,0,0,1.07-1.66,2,2,0,0,0-1.8-1.72,5.42,5.42,0,0,0-4.14,1.26,7,7,0,0,0-.71.87,3.29,3.29,0,0,1-.84.9,3.34,3.34,0,0,1-2,.49l-1.18,0h-.29c-.69,0-1.31,0-1.89.09a7.33,7.33,0,0,1-4-.46,3.84,3.84,0,0,1-.76-.52l1.29.11a15.12,15.12,0,0,0,4.25,0,3.57,3.57,0,0,0,1.49-.69,3.61,3.61,0,0,1,.71-.44,2,2,0,0,1,.74-.14A1.59,1.59,0,0,0,22.81-4a.45.45,0,0,0,0-.23,2.12,2.12,0,0,0-1.44-2c-.43-.22-.5-.28-.52-.45A6.32,6.32,0,0,1,22.58-9a5.72,5.72,0,0,1,.84-.59A2.86,2.86,0,0,0,25-11.23a.73.73,0,0,0-.05-.5,1.36,1.36,0,0,0-1.25-.9,2.67,2.67,0,0,0-1.48.67,2.64,2.64,0,0,1-.86.5,1.9,1.9,0,0,1-.56-.31,2.38,2.38,0,0,0-1.26-.51l-.27,0A4.08,4.08,0,0,0,17-10.41a5.58,5.58,0,0,1-.52.67,3.71,3.71,0,0,1-.42-.56,2.56,2.56,0,0,0-1.54-1.27.73.73,0,0,0-.55.13,1.3,1.3,0,0,1-.85.33,3.45,3.45,0,0,1-1-.23l-.81-.23a3,3,0,0,0-1.5.19c-.19.05-.43.13-.49.13-.3-.08-.63-.52-.95-.94a4.11,4.11,0,0,0-2-1.65A7.08,7.08,0,0,0,4.48-14c-.52,0-1.09,0-1.64-.07a25,25,0,0,0-6.36,0,9.23,9.23,0,0,0-3.79,1.68,11.23,11.23,0,0,1-1.92,1.08l-.61.24c-1.93.73-4.11,1.55-4.26,3-.07.75.41,1.46,1.43,2.1a.7.7,0,0,0,.4.1A16.2,16.2,0,0,0-7.63-6.89a18.3,18.3,0,0,1,3.1-.85A4.93,4.93,0,0,1-5.57-6a8.54,8.54,0,0,0-.82,1.2,2.8,2.8,0,0,0-.26,1.5c0,.09,0,.21.06.19-.87.56-2.57-.09-4.19-.77a14.08,14.08,0,0,0-3-1,4.75,4.75,0,0,0-2.55.48A4.18,4.18,0,0,1-17.74-4,4.1,4.1,0,0,1-19-4.28a3.87,3.87,0,0,0-2.32-.23,1.53,1.53,0,0,1-.32-.5A1.91,1.91,0,0,0-23-6.23h-.21a2.76,2.76,0,0,0-1.64.81,2.62,2.62,0,0,1-.64.44,3.54,3.54,0,0,1-.92,0,7.56,7.56,0,0,0-.85-.06h-.2c-.29,0-.59,0-.91,0h-.73A15.24,15.24,0,0,0-32-4.84l-.93.2A28.09,28.09,0,0,1-36.63-4a13.47,13.47,0,0,0-3.08.76,8.86,8.86,0,0,1-3.42.69,3.77,3.77,0,0,1-1.39-.63A5.16,5.16,0,0,0-46.19-4a9.75,9.75,0,0,1-1-.29,10,10,0,0,0-1.3-.36,5.47,5.47,0,0,0-1-.08h-.76a4.58,4.58,0,0,1-.64,0c-2.1-.4-4.31-.81-6.35-1.07a5.35,5.35,0,0,1-1.1-.35,5.32,5.32,0,0,0-1.43-.45,5,5,0,0,0-1.8.18,3.6,3.6,0,0,1-1.33.17l-.76-.1c-.39,0-.78-.09-1.16-.17s-.74-.18-1.1-.28a11.57,11.57,0,0,0-1.38-.34,16.77,16.77,0,0,0-2.53-.31h-.23a8.51,8.51,0,0,0-2.4.44c-.35.1-.71.2-1.08.27a9.51,9.51,0,0,1-2,.07,12.16,12.16,0,0,0-1.81,0c-1.19.11-2.47.28-3.78.46l-1.53.2a18.64,18.64,0,0,0-4.84,1.52l-.39.16a18.71,18.71,0,0,1-4.91,1.44,12.24,12.24,0,0,1-1.27.09c-1.46,0-3.29.1-4.33,1.54a.68.68,0,0,0-.11.6A6.06,6.06,0,0,0-98.13.48a3.06,3.06,0,0,1,.42,2c-.27.58-.56.63-.84.63a4.79,4.79,0,0,1-1.18-.23,7.34,7.34,0,0,0-1.47-.28,24.15,24.15,0,0,0-5.42.42c-1.34.28-4.14.87-4,3.09.13,2,2.47,2,3.47,2l1,0,.92,0a5.15,5.15,0,0,1,1.37.14.45.45,0,0,1-.09.17c-.35.45-1.58.6-2.57.71l-.76.1c-.37,0-.75.12-1.11.19a14.25,14.25,0,0,1-1.42.2,3.26,3.26,0,0,1-.78-.11,7.07,7.07,0,0,0-1-.11,5.61,5.61,0,0,0-2.38.87,10,10,0,0,1-1.86.83c-.21.07-.48.14-.78.22-2.06.54-3.42,1-3.52,2-.16,1.4,1.63,2,3.36,2.67.51.18,1,.36,1.43.55.78.37,1.41.73,2,1.07A10.07,10.07,0,0,0-110.12,19a13.75,13.75,0,0,0,2.85.24,53.19,53.19,0,0,0,5.31-.35,5.45,5.45,0,0,0,1.44-.43,4,4,0,0,1,.74-.25,1.46,1.46,0,0,1,.93.44,2.37,2.37,0,0,0,1.5.68A6.35,6.35,0,0,0-94.81,19c.26-.08.54-.15.87-.23a12.85,12.85,0,0,1,1.5-.22,9.8,9.8,0,0,0,2.88-.6,5.37,5.37,0,0,0,1.73-1.38c.31-.33.62-.68.94-.7a2.72,2.72,0,0,1,1.52.81,5.06,5.06,0,0,0,2.29,1.23,16.71,16.71,0,0,0,3.49.1c.44,0,.87-.05,1.29-.05a4.4,4.4,0,0,1,2,.39c.82.41,1.42,1.68,1.9,2.7a13.4,13.4,0,0,0,.62,1.21c-.11.13-.27.29-.38.4A2.8,2.8,0,0,0-75,24.06a2.27,2.27,0,0,0,.19,1.06,2.6,2.6,0,0,1,.16.64A5.59,5.59,0,0,1-75,27c-.26.83-.58,1.84.36,2.64a2.34,2.34,0,0,0,2.24.11,2.21,2.21,0,0,1,.68-.19c.06,0,.12,0,.23.15.25.37.25.38-.11.81a3,3,0,0,0-.72,1.36,5.33,5.33,0,0,0,.36,2.63A4.86,4.86,0,0,1-71.59,36a5.43,5.43,0,0,1-.62,1.18c-.2.31-.37.6-.46.78a2.81,2.81,0,0,1-.5.75,2.7,2.7,0,0,0-.76,1.53A3.57,3.57,0,0,0-72.54,43a3.18,3.18,0,0,1,.91,1.23,8.42,8.42,0,0,1-.84,3.12,17.73,17.73,0,0,1-3.1,4.4c-.32.37-.63.73-.94,1.11-.46.55-1,1.1-1.48,1.66a21.11,21.11,0,0,0-2.92,3.66c-.29.54-.53,1.09-.75,1.62s-.35.83-.55,1.21a4.88,4.88,0,0,1-1.24,1.34A6,6,0,0,0-85,64.18a.62.62,0,0,0-.07.23,24.29,24.29,0,0,0-.08,4.88l.06,1.17C-85,72-85,73.54-84.78,75c0,.23,0,.54.06.88A7.45,7.45,0,0,0-84.15,79a2.24,2.24,0,0,0,2.16.89,2.83,2.83,0,0,1,1.33.23,5.69,5.69,0,0,1,2,2.52,10.49,10.49,0,0,1,.25,2.3c0,.48,0,1,.08,1.43a19.21,19.21,0,0,0,.79,4.12,5.9,5.9,0,0,0,1,1.57,3.49,3.49,0,0,1,.95,1.74c0,.22-.18.38-.58.7a2.31,2.31,0,0,0-1.15,1.86c0,1.44,1.3,2.13,2.34,2.69.81.43,1.57.84,1.72,1.45a3.25,3.25,0,0,1,0,1.23,3.68,3.68,0,0,0,0,1.55,5.49,5.49,0,0,0,2,2.41l.37.31.23.22a3.08,3.08,0,0,0,3,1.11.65.65,0,0,0,.41-.26,2.49,2.49,0,0,0-.14-3.17,5.89,5.89,0,0,1-.37-.64,16.36,16.36,0,0,1-.74-2.48c-.18-.72-.37-1.48-.6-2.24a5.23,5.23,0,0,0-1.26-1.87,3.62,3.62,0,0,1-.84-1.13,3.8,3.8,0,0,1-.06-1.41,4.09,4.09,0,0,0-.17-1.9,5.87,5.87,0,0,0-1-1.42,4.06,4.06,0,0,1-.88-1.25A2.35,2.35,0,0,1-73,87.63a1.16,1.16,0,0,1,2,.42,3.32,3.32,0,0,1,0,2,6,6,0,0,0-.15,2.18,4.69,4.69,0,0,0,1.92,2.5,6.84,6.84,0,0,1,1.15,1.12,7.06,7.06,0,0,1,.84,1.64,6.45,6.45,0,0,0,1,1.79,1.76,1.76,0,0,0,.53.93l.11.24a.65.65,0,0,0,.16.5A15.73,15.73,0,0,1-64,103.06a20.27,20.27,0,0,0,1.4,2.11c.36.46.81.94,1.29,1.44,1.41,1.48,3,3.15,2.79,5.26a2.66,2.66,0,0,1-.69,1,3,3,0,0,0-1.08,2.06c.06,1.32,1.55,2.84,2.48,3.48a8,8,0,0,0,2.32,1,10,10,0,0,1,1,.36,9.3,9.3,0,0,1,.86.5,9.55,9.55,0,0,0,1.3.74,15.18,15.18,0,0,1,1.5.84c.46.28.93.57,1.45.83.95.49,2,1,3.19,1.51l1.51.69a14.62,14.62,0,0,0,5.32,1.22,6.39,6.39,0,0,0,2.19-.53,5.73,5.73,0,0,1,1.92-.49c1.6,0,2.77,1.33,4,2.73a10.53,10.53,0,0,0,3,2.68,4.86,4.86,0,0,0,1.66.4,5.62,5.62,0,0,1,.89.13,1.68,1.68,0,0,1,.66.41,3.37,3.37,0,0,0,1,.65,17.56,17.56,0,0,0,2.08.52,11.84,11.84,0,0,1,2.06.56,6.91,6.91,0,0,1,2.1,2.3,9,9,0,0,0,1.81,2.19,7.66,7.66,0,0,0,.68,2.35,3.72,3.72,0,0,0,1.9,1.33,8.85,8.85,0,0,1,.93.42,4.74,4.74,0,0,1,1.37,1.35,5.26,5.26,0,0,0,1.87,1.69,4.88,4.88,0,0,0,1.27.29,7.83,7.83,0,0,1,1,.2,4,4,0,0,1,1.55,1.1c.72.71,1.6,1.44,2.74,1.1s1.27-1.52,1.3-2.28c0-.16,0-.32,0-.48a3.13,3.13,0,0,1,2-1.15c.87,0,1.16.58,1.71,2.1l.43,1.13a21.72,21.72,0,0,1,.72,2.1,26.3,26.3,0,0,1,0,7.14,4.24,4.24,0,0,1-1.27,1.53A10.62,10.62,0,0,0,1,159.07a8.4,8.4,0,0,0-.7,1.15A4.21,4.21,0,0,1-.2,161a2.35,2.35,0,0,1-1,.56,2.93,2.93,0,0,0-1.52,1,2.77,2.77,0,0,0-.3,1.39,3.24,3.24,0,0,1-.1.85l-.35.71a5.19,5.19,0,0,0-.62,4.56,4.59,4.59,0,0,0,.62,1.13,2.54,2.54,0,0,1,.54,1.2c0,.26-.7.82-1.12,1.15a4,4,0,0,0-1.75,2.2,5.77,5.77,0,0,0,.7,2.72,10.88,10.88,0,0,1,.54,1.48,4.08,4.08,0,0,0,1.79,2,6.64,6.64,0,0,1,.72.6,30.83,30.83,0,0,1,2.61,3.67,46.07,46.07,0,0,1,2.32,4.16,47,47,0,0,0,2.33,4.19c.29.45.62.89.94,1.33a12.37,12.37,0,0,1,1.56,2.47,9.38,9.38,0,0,0,.62,1.12,5.8,5.8,0,0,1,.45.8c1.12,2.52,5.62,4.94,7.49,5.86a15.47,15.47,0,0,1,1.59.94c.4.26.79.51,1.2.74,1.51.84,4,2.64,4.62,3.67a13.52,13.52,0,0,1,.84,3.76c.08.55.16,1.09.24,1.56a31.54,31.54,0,0,1,.41,5l.06,1.52a12.33,12.33,0,0,0,.34,2.12,10.66,10.66,0,0,1,.31,2,6.19,6.19,0,0,1-.05.63,6.57,6.57,0,0,0-.07.67A16.19,16.19,0,0,0,26,231.4a11.64,11.64,0,0,1,.2,2.63,4.17,4.17,0,0,1-.22,1,3.75,3.75,0,0,0-.25,1.51l.21,2.31c0,.38,0,.82.05,1.23s0,.86.06,1.19a9.67,9.67,0,0,0,.86,2.82,10.57,10.57,0,0,1,.66,1.85,20.65,20.65,0,0,1,.51,5,2.89,2.89,0,0,1-.4.86,4,4,0,0,0-.62,1.48,2.63,2.63,0,0,0,.35,1.45,1.94,1.94,0,0,1,.22.64,3.09,3.09,0,0,1-.35.94,3.44,3.44,0,0,0-.46,1.7,6.12,6.12,0,0,0,1.38,3,5.61,5.61,0,0,1,1.13,2.13,2.13,2.13,0,0,1-.27.56,2.3,2.3,0,0,0-.46,1.3,5.73,5.73,0,0,0,.61,2.09,7.06,7.06,0,0,1,.43,1.14c.08.37.13.79.19,1.22.17,1.45.39,3.24,2,3.94a.78.78,0,0,0,.5,0c1.57-.49,1.2-1.87,1.05-2.46a.14.14,0,0,1,0-.07,6.5,6.5,0,0,1,.6,2.32c0,.34.09.69.16,1a2,2,0,0,1-.26-.06,4.46,4.46,0,0,0-1-.15,1.39,1.39,0,0,0-1.29.75,2.36,2.36,0,0,0,.35,2.25,2.72,2.72,0,0,1,.21.45l0,.35a14.32,14.32,0,0,0,.27,2.45c.24,1,1.15,1.29,1.81,1.53.29.1.74.27.79.4s-.12.51-.42.95a3.14,3.14,0,0,0-.7,1.76c0,1.15,1.06,2.62,2.54,4.56l.27.37a6.46,6.46,0,0,1,.66,1.09c.19.34.38.68.59,1a14.07,14.07,0,0,0,1.41,1.59l.17.18a5.86,5.86,0,0,0,1.43,1,8.61,8.61,0,0,1,.85.49,12.73,12.73,0,0,1,1.59,1.35,11.63,11.63,0,0,0,2.24,1.8,5.61,5.61,0,0,1,.59.4,6.08,6.08,0,0,0,1.13.71c.34.15.7.35,1.07.53a9.81,9.81,0,0,0,1.58.75,20.4,20.4,0,0,0,3.2.78,14.42,14.42,0,0,1,3.1.82c.26.13.56.1,1,.24a5.62,5.62,0,0,0,.83.2,6.71,6.71,0,0,0,1.27.13c.43,0,.85.05,1.21.05a.7.7,0,0,0,.67-.51.65.65,0,0,0,0-.31l.18,0c.76-.14,1.72-.32,2-1.62a.67.67,0,0,0,0-.44c-.65-1.49-2.17-1.78-3.51-2a7.27,7.27,0,0,1-2.18-.64A9.2,9.2,0,0,1,55.42,295c-.29-.38-.57-.74-.84-1s-.66-.66-1.06-1c-.76-.7-1.91-1.76-1.9-2.37,0-.17.37-.41.69-.62a2.58,2.58,0,0,0,1.31-1.45,1.68,1.68,0,0,0-.36-1.38c-.2-.3-.21-.34-.17-.45a2.3,2.3,0,0,1,1.06-1.1,2.55,2.55,0,0,0,1.47-2.27c-.07-1.84-1.84-2.35-3.27-2.76S50.06,279.75,50,279c0-.54.25-.78,1-1.3a3.42,3.42,0,0,0,1.66-2.09,7.15,7.15,0,0,0,.11-2.06v-.34c.11-.34.41-.58.87-.92a3.18,3.18,0,0,0,1.42-1.88.66.66,0,0,0-.08-.49,1.91,1.91,0,0,0-1.75-.83l-.6,0a3.06,3.06,0,0,1-1-.05,2.14,2.14,0,0,1-.74-1.61,5.91,5.91,0,0,1,1.13.19,8,8,0,0,0,1.53.22,2.24,2.24,0,0,0,2.13-1.28,4.16,4.16,0,0,0,.19-2.26,3.85,3.85,0,0,1,0-1.68c.09-.07.42-.16,1.62-.16h1.12a7.81,7.81,0,0,0,1.06-.05A12.51,12.51,0,0,0,64,261.18a6.08,6.08,0,0,0,2.44-4.81,2.68,2.68,0,0,0-1-1.75,4.35,4.35,0,0,1-.48-.48,10,10,0,0,1-.82-1.18c-.11-.18-.21-.35-.33-.52a2.49,2.49,0,0,0-.62-.66c.36.09.75.21,1.14.33a9.46,9.46,0,0,0,5,.46c.72-.21,1.92-1,4-5.21a2.83,2.83,0,0,0,.24-.94,2.34,2.34,0,0,1,.13-.59,11.93,11.93,0,0,0,.53-1.37,2.05,2.05,0,0,1,.43-.74,2.46,2.46,0,0,0,.47-.75,2.84,2.84,0,0,1,1.26-1.31,5.46,5.46,0,0,0,1.29-1.11,4.44,4.44,0,0,0,.72-1.63,3.25,3.25,0,0,1,.42-1.08,8.16,8.16,0,0,1,.93-.93,5.82,5.82,0,0,0,1.18-1.31.63.63,0,0,0,.08-.23,6.9,6.9,0,0,0-.67-3.71,4.49,4.49,0,0,1-.51-2.73c.5-1.87,3.41-3.2,5.54-4.17l.66-.31a9.48,9.48,0,0,1,1.48-.47c.33-.09.65-.17.91-.26.77-.28,1.59-.48,2.39-.7s1.71-.44,2.49-.73c2.1-.77,2.79-2.52,3.45-4.21a17.57,17.57,0,0,1,.84-1.89,7,7,0,0,1,1-1.24,3.88,3.88,0,0,0,1.14-1.78,4.26,4.26,0,0,0,0-1.2,3.35,3.35,0,0,1,0-.95,4.52,4.52,0,0,1,.39-1.07,7.82,7.82,0,0,0,.48-1.27,10.08,10.08,0,0,0,.06-3c0-.48-.06-.95-.06-1.37a9.76,9.76,0,0,0-.21-1.78,8.52,8.52,0,0,1-.17-1.19,3.74,3.74,0,0,1,1.5-3.59,8.19,8.19,0,0,0,1.36-1.51,5.55,5.55,0,0,0,.74-1.91,3.45,3.45,0,0,1,.31-1,17.53,17.53,0,0,1,2.36-2.63c2-1.91,4-3.89,3.78-7.53C110,181.59,108.6,177.36,107,176.65ZM-25.75,5.21a6.06,6.06,0,0,1,.64-1.13c.07-.1.13-.2.19-.3.51-.06,1-.18,1.61-.3a13.9,13.9,0,0,1,2.57-.38c1,0,1.39.32,1.59.81a1.73,1.73,0,0,1-.86.22l-.56.07c-.66.12-1.34.29-2,.47a12.47,12.47,0,0,1-3,.54C-25.63,5.18-25.7,5.21-25.75,5.21ZM-3.17-1.92a2.12,2.12,0,0,1,1.43,1,.71.71,0,0,0,.5.3c.28,0,.57,0,.86.06A14.08,14.08,0,0,1-2.07-.4h0A3.33,3.33,0,0,1-3.89-.83C-3.82-1.29-3.63-1.92-3.17-1.92ZM13.89,52v-.36a2.25,2.25,0,0,1,1.45-.54h.17a3.43,3.43,0,0,1,.74.27,4.09,4.09,0,0,0,1.42.46,4.57,4.57,0,0,0,1.09-.07,2.31,2.31,0,0,1,.49,0,1.09,1.09,0,0,1,.68.85.81.81,0,0,1-.12.7,2.41,2.41,0,0,1-.63-.06,2.88,2.88,0,0,0-1.1,0c-1.22.21-2,1.3-2.66,2.27-.34.48-.87,1.22-1.13,1.22s-.59-.45-.86-1.42-.17-1.7.16-1.94a.68.68,0,0,0,.29-.52A5.27,5.27,0,0,0,13.89,52Zm-2,8.63h.58a5.09,5.09,0,0,0,.58,0,8.24,8.24,0,0,0,1.45-.39c-.4.14-.8.29-1.25.43a6.73,6.73,0,0,1-1.66.34c-.3,0-.38-.07-.38-.07l-.05-.19S11.3,60.62,11.85,60.62ZM4.11,58.33A4.94,4.94,0,0,1,1.55,60c-.2,0-.22-.1-.23-.13-.21-.59.87-2.47,1.7-3.5.26-.32.56-.64.86-1s.63-.7,1-1.08.39-.49.57-.73a6.34,6.34,0,0,1,1-1.14,8.92,8.92,0,0,1,3.3-.95,3,3,0,0,1-1.08.64,9.65,9.65,0,0,0-1,.49C5.58,53.84,4.76,55.72,4.11,58.33ZM12.64,47.7c0,.27,0,.56-.53.77a33.76,33.76,0,0,1-4.4.59h0c-.16,0-.49-.53-.67-.81-.4-.61-.85-1.31-1.63-1.45a3.13,3.13,0,0,0-.44,0,6.23,6.23,0,0,0-2.31.63c-.84.35-1.62.83-2.17.31.22-.31.69-.45,1.61-.66.26-.06.52-.12.79-.2a22.15,22.15,0,0,0,2.7-1c1.7-.7,3.54-1.41,4.69-1.11A4.88,4.88,0,0,1,12.64,47.7ZM24,56.51h0c.56-.06,1.21-.13,1.78-.14A5.88,5.88,0,0,1,24,56.51ZM45.4-5.73c.33,1.18,1.58,1.32,2.49,1.4A3,3,0,0,1,49.23-4c-.3,1-1.82,1.74-2.95,2.3l-.43.21c-.32.16-.65.36-1,.56-.81.5-1.56,1-2.21.73a.26.26,0,0,1,.09-.22,1.42,1.42,0,0,0,.31-1.78,2,2,0,0,0-1.79-1c-.49-.07-.8-.12-1-.33s-.13-.81.23-1.75a5.71,5.71,0,0,0,.53-2.53c.66-.94,2.08-1.21,3.57-1.51A14.07,14.07,0,0,0,47.11-10a6.52,6.52,0,0,0-.88.8A5.28,5.28,0,0,0,45.4-5.73ZM43.73,4.61a2.35,2.35,0,0,0,.32.23C43.94,4.76,43.84,4.7,43.73,4.61Z" transform="translate(120.13 19.32)"/><path class="cls-3" d="M-76.87,33.68a.76.76,0,0,0,.43.14.86.86,0,0,0,.27,0l.3-.13A2.67,2.67,0,0,0-74,32a.68.68,0,0,0-.05-.54,1.76,1.76,0,0,0-1.58-1,2.38,2.38,0,0,0-2.27,2.21.67.67,0,0,0,.14.45,1.62,1.62,0,0,0,.7.51A.59.59,0,0,1-76.87,33.68Z" transform="translate(120.13 19.32)"/></g></g></g></svg>