<svg xmlns="http://www.w3.org/2000/svg" viewBox="0 0 261.05 21.32"><defs><style>.cls-1{fill:#bd2137;}</style></defs><g id="Layer_2" data-name="Layer 2"><g id="Layer_3" data-name="Layer 3"><rect class="cls-1" x="1.18" y="19.27" width="259.86" height="2.05"/><path class="cls-1" d="M186.83,6.87h6.37c-.06,1.17-1,2.1-.94,3.36h1.27c.84-.87.9-2.17,1.51-3.32h6.61c-.21,1.13-1.06,2-1,3.31h1.55l1.24-3.34h6.47L208,12.11H186.52c-.29-.4-.67-.85-1-1.34a.77.77,0,0,1,0-.69A26.27,26.27,0,0,0,186.83,6.87Z"/><path class="cls-1" d="M17.79,12.08H.67A2.17,2.17,0,0,1,.06,9.94c.19-1,.53-2,.8-3.06H9.15L8.76,9.15c.56.69,1.45.18,2.18.36l.94-1.87-.36-.73h8.2a.85.85,0,0,1,0,.38,15.61,15.61,0,0,0-.85,2.93C18.21,10.67,18.5,11.69,17.79,12.08Z"/><path class="cls-1" d="M53.16,9.46h2.05c.39-.81,1.22-1.49.63-2.57h8.31A21.78,21.78,0,0,1,62,12.12c-5.45,0-10.87,0-16.29,0a5.86,5.86,0,0,1-1.22-.27c0-.23.05-.52-.06-.64a1.2,1.2,0,0,1-.18-1.33c.34-1,.49-2,.82-3H53.4c-.08.39-.2.77-.24,1.15S53.16,8.91,53.16,9.46Z"/><path class="cls-1" d="M115.1,12.12c.66-1.84,1.26-3.55,2-5.2h7.63a12,12,0,0,0-1.15,3.32h1c1-.81,1.16-2.32,2-3.35h7.47a9.5,9.5,0,0,0-.71,1.38A7.75,7.75,0,0,1,131,11.73a2.1,2.1,0,0,1-1.41.4C124.81,12.11,120.08,12.12,115.1,12.12Z"/><path class="cls-1" d="M38,6.9c-.83,1.6-1.38,3.24-2.64,4.49a2.38,2.38,0,0,1-1.8.74c-4.11,0-8.23,0-12.33,0l-.86-.85c-.4-1.62.47-2.92.78-4.37h7.21C28.12,8,27.44,9,27.68,10.22h.94c1.13-.72,1.06-2.29,2-3.32Z"/><path class="cls-1" d="M169.33,6.89H185a2.46,2.46,0,0,1-2.09,1.6c-.31.41.09.7.19,1,.23.82.47,1.64.74,2.56-1.2.06-2.44,0-3.68,0h-3.74l-1-2.54-1,2.51h-6.82C167.87,10.24,168.86,8.68,169.33,6.89Z"/><path class="cls-1" d="M81.12,6.9,79.6,8.42l-1,0a26.53,26.53,0,0,1,1.1,3.5l-.12.12a.21.21,0,0,1-.11,0H72.34l-.93-2.58-1.14,2.53H63.43l2-5.17Z"/><path class="cls-1" d="M149.4,12.07V10.52a2.89,2.89,0,0,0-.82-.23c-1.53,0-3.06,0-4.57,0l-1.81,1.81h-3.11c.73-.94,1.39-1.81,2.09-2.65s1.47-1.68,2.22-2.53h3.13c-.1.71-.78.92-1.08,1.47h3.94V6.91h9.16a18.65,18.65,0,0,1-.3,5.16Z"/><path class="cls-1" d="M213.33,6.89h2.86l-1.34,1.74h2.62V6.92h7.95c-.19,1.73.32,3.49-.34,5.16h-7.56V10.33h-4.2l-1.46,1.73H209Z"/><path class="cls-1" d="M96.7,12.09H89.56c-.68-.48-.23-1.16-.43-1.76H85l-1.42,1.75H80.73L85,6.88H88a11.11,11.11,0,0,0-.85.87,7.91,7.91,0,0,0-.54.9l1.22,0h1.34V6.92H97c0,1.62,0,3.26,0,4.89C97,11.91,96.79,12,96.7,12.09Z"/><path class="cls-1" d="M247,6.89h8.28c1.07,1.9.9,2,.89,3.22-.36.45-.73,1-1.14,1.43a1.61,1.61,0,0,1-1.21.57H243.62c-.29-.78.42-1.18.52-1.82h3.43a1,1,0,0,0,.34-1.3C247.63,8.31,247.31,7.62,247,6.89Z"/><path class="cls-1" d="M161.44,6.89h6.93c-.67,1.74-1.32,3.41-2,5.17h-6.94C160.1,10.34,160.76,8.63,161.44,6.89Z"/><path class="cls-1" d="M232.82,6.89h6.86c-.67,1.77-1.32,3.45-2,5.18h-6.87Z"/><path class="cls-1" d="M100,6.88h6.57a15.74,15.74,0,0,1-.9,2.61,18.07,18.07,0,0,1-1,2.6H97.9C98.68,10.37,99.14,8.54,100,6.88Z"/><path class="cls-1" d="M114.06,12.1H107.6c-.07-1,.67-1.74.82-2.66a12.43,12.43,0,0,1,1-2.56h6.5Z"/><path class="cls-1" d="M117,3.47A1.57,1.57,0,0,1,116.4,5h-3.21a12,12,0,0,1-3-.19l0-.55h-2.49c-.2.24-.21.75-.78.74H100.8a1.57,1.57,0,0,1,.57-1.55Z"/><path class="cls-1" d="M47.73,1.29a6.32,6.32,0,0,1,.61-.74,6,6,0,0,1,.85-.5H65.05l-.57,1.24Z"/><path class="cls-1" d="M3.46,1.29A2.79,2.79,0,0,1,6.06,0c4.42.05,8.85,0,13.27,0h1.31l-.4,1.27Z"/><path class="cls-1" d="M118.53,3.18l.41-1.29h14.58l.92,1a.89.89,0,0,1-.07.21s-.06.09-.09.09Z"/><path class="cls-1" d="M149.4,5V4c-.11,0-.19,0-.23.05-.32.3-.62.61-.92.92H145.2c-.06-.73.86-.85.83-1.52h12.51V5Z"/><path class="cls-1" d="M101.3,3.13l.63-1.27h5.71c2.45,0,4.9,0,7.36,0a1.81,1.81,0,0,1,2,1.28Z"/><path class="cls-1" d="M231.75,5a5.89,5.89,0,0,1-.44-.54c-.17-.27-.3-.57-.45-.87,1-.22,11.55-.27,13.48-.07a6.64,6.64,0,0,1-1.68,1.24,1.75,1.75,0,0,1-1.09.23Z"/><path class="cls-1" d="M37.53,1.86c.28.4.8.63.94,1.18-1.16.19-14,.18-15.16,0a2.74,2.74,0,0,1,2.25-1.16h12Z"/><path class="cls-1" d="M66.69,3.13l.72-1.27H76.2c.84,0,1.67-.06,2.5,0a5.16,5.16,0,0,1,3.22,1.25Z"/><path class="cls-1" d="M185.58,3.14H170.89l.39-1.28h1.13c3.24,0,6.48,0,9.72,0a12,12,0,0,1,2.25.32c.48.08.9.53,1.35.81Z"/><path class="cls-1" d="M20.32,1.91a2.21,2.21,0,0,1-1.39.49c-2.1,0-4.2,0-6.3,0a2.23,2.23,0,0,0-1.91.77H2.43L3,1.91Z"/><path class="cls-1" d="M64.49,1.9a2.07,2.07,0,0,1-1.38.5c-2.1,0-4.2,0-6.3,0a3.32,3.32,0,0,0-1.92.76h-8c-.34-.7.28-.92.55-1.25Z"/><path class="cls-1" d="M86.53,5l1.41-1.49H97V5Z"/><path class="cls-1" d="M158.58,1.9V3.13H146.52l.83-1.23Z"/><path class="cls-1" d="M216.36,3.44h9V4.76a2,2,0,0,1-.64.25q-4.4,0-8.79,0a3,3,0,0,1-.85-.29Z"/><path class="cls-1" d="M97.05,5.32V6.55H89.23l-.12-1.17-.8,1.21H85.7c-.07,0-.13-.09-.22-.14,0-.56.65-.67.82-1.13Z"/><path class="cls-1" d="M225.37,5.32V6.55h-7.86V5.61c-.11,0-.2,0-.23,0l-.77.93h-2.69l1.26-1.25Z"/><path class="cls-1" d="M247.24,3.07a3,3,0,0,1,2.44-1.18c3.1-.07,6.19,0,9.36,0a1.84,1.84,0,0,0-.24.57c0,.55-.28.75-.8.75H247.37S247.3,3.12,247.24,3.07Z"/><path class="cls-1" d="M158.57.06V1.29H148L148.9.06Z"/><path class="cls-1" d="M246.75,3.46h8.06c0,.53.29,1.1-.38,1.54h-8Z"/><path class="cls-1" d="M1.54,5l.7-1.51h8.11L9.7,5Z"/><path class="cls-1" d="M46.4,3.47h8c.17.63-.19,1-.53,1.5H46Z"/><path class="cls-1" d="M149.42,6.55V5.32h9.12V6.55Z"/><path class="cls-1" d="M118.36,3.47H126L125.47,5h-6.79a3.71,3.71,0,0,1-.82-.22Z"/><path class="cls-1" d="M232.56,6.55l-.89-1.27h10.42a6.69,6.69,0,0,0-1.54,1.27Z"/><path class="cls-1" d="M11,6.55l.39-1.23H20.3l-.36,1.23Z"/><path class="cls-1" d="M64.54,5.32l-.39,1.23h-9l.58-1.23Z"/><path class="cls-1" d="M134.33,5h-7V3.48h7.34Z"/><path class="cls-1" d="M38.4,3.48V4.73c-.19.08-.41.27-.63.27-2.12,0-4.25,0-6.35,0L31.1,3.48Z"/><path class="cls-1" d="M23,3.47H30L29.2,5C27,5,24.9,5,22.77,5c-.22,0-.44-.2-.69-.32Z"/><path class="cls-1" d="M89.27,1.89H97V3.11H88.34C88.49,2.49,89,2.26,89.27,1.89Z"/><path class="cls-1" d="M225.35,3.12h-8.66c.09-.64.64-.83.9-1.24h7.76Z"/><path class="cls-1" d="M162.32,5a1.57,1.57,0,0,1,.6-1.51h6.77c-.12.31-.2.56-.31.8s-.22.43-.36.71Z"/><path class="cls-1" d="M255.15,6.57H247l-.51-1.23h8.3C254.87,5.69,255,6.08,255.15,6.57Z"/><path class="cls-1" d="M45.21,6.59l.42-1.26h8.28c-.08.19-.22.35-.22.52,0,.56-.29.75-.8.75Z"/><path class="cls-1" d="M177.63,3.44,176.91,5h-6.64c0-.1-.11-.22-.09-.24.36-.33.08-1,.57-1.19a4.6,4.6,0,0,1,1.4-.12Z"/><path class="cls-1" d="M1,6.55,1.4,5.32H9.59l-.4,1.23Z"/><path class="cls-1" d="M73.37,3.47A1.58,1.58,0,0,1,72.77,5H66.39c-.38-.55.4-1,.13-1.52Z"/><path class="cls-1" d="M179.14,5V3.49H186L185.68,5Z"/><path class="cls-1" d="M75.27,5V3.48h6.52V5Z"/><path class="cls-1" d="M204.43,5c-.25-.6.07-1,.3-1.5h6.52L210.6,5Z"/><path class="cls-1" d="M196,5a1.59,1.59,0,0,1,.61-1.51h6.11c0,.7,0,.7-.51,1.51Z"/><path class="cls-1" d="M125.3,5.31l-.4,1.25h-7.48c-.41-.46.21-.79.23-1.25Z"/><path class="cls-1" d="M188.16,3.48h6.16A1.51,1.51,0,0,1,193.74,5c-1.93,0-3.89,0-5.85,0-.09,0-.18-.17-.32-.31Z"/><path class="cls-1" d="M134.32,5.32l-.26,1.24h-7.49L127,5.32Z"/><path class="cls-1" d="M38.17,5.32a3.67,3.67,0,0,1,0,.67.63.63,0,0,1-.67.61H30.57l.48-1.27Z"/><path class="cls-1" d="M29.08,5.28l-.65,1.29h-7a6.24,6.24,0,0,1,.19-.8.62.62,0,0,1,.65-.49Z"/><path class="cls-1" d="M245,3.15h-6.92a2.55,2.55,0,0,1,2.49-1.29h6.09Z"/><path class="cls-1" d="M72.61,6.54H65.42l.64-1.24h6.86a3.93,3.93,0,0,0-.3.64A3,3,0,0,0,72.61,6.54Z"/><path class="cls-1" d="M73.83,6.59A4.7,4.7,0,0,0,74.61,6a4,4,0,0,0,.4-.72h6.55a4.77,4.77,0,0,1,0,.66c0,.37-.23.63-.65.63Z"/><path class="cls-1" d="M163.33,1.88h6.86l-.35,1.23h-7Z"/><path class="cls-1" d="M185.77,5.33l-.61,1.24H178l1.05-1.24Z"/><path class="cls-1" d="M161.54,6.55,162,5.32h6.85l-.34,1.23Z"/><path class="cls-1" d="M177,5.33l-.61,1.24h-6.62c-.41-.48.25-.8.16-1.24Z"/><path class="cls-1" d="M229.87,1.86h6.78L237.27,3a.89.89,0,0,1-.12.15.16.16,0,0,1-.11,0h-6.53Z"/><path class="cls-1" d="M107.3,5.33l-.61,1.24H100l.58-1.24Z"/><path class="cls-1" d="M116,6.59h-6.5c.07-.23.12-.44.2-.64a6.45,6.45,0,0,1,.28-.64h6.52Z"/><path class="cls-1" d="M202.25,5.28l-.54,1.29h-6.53a4,4,0,0,0,.23-.54c.21-.71.23-.75.93-.75Z"/><path class="cls-1" d="M210.49,5.32l-.39,1.23h-6.6l.59-1.23Z"/><path class="cls-1" d="M205.15,1.88h6.61a3.14,3.14,0,0,0-.29.64,2.71,2.71,0,0,0,0,.64h-6.61a4.19,4.19,0,0,0,.29-.64A3.38,3.38,0,0,0,205.15,1.88Z"/><path class="cls-1" d="M193.32,6.56H187l.36-1.24h6.55Z"/><path class="cls-1" d="M195.12,1.9l-.5,1.25h-6.2c-.41-.47.21-.8.22-1.25Z"/><path class="cls-1" d="M203.32,1.9a4.14,4.14,0,0,1-.06.66,3.07,3.07,0,0,1-.32.57h-6.29L197,1.9Z"/><path class="cls-1" d="M143.71,6.55,145,5.3h2.87l-1.26,1.25Z"/></g></g></svg>